<svg width="79" height="111" viewBox="0 0 79 111" fill="none" xmlns="http://www.w3.org/2000/svg">
<g clip-path="url(#clip0_119_54)">
<path d="M67.0423 93.4519L66.925 93.8431L66.842 94.2636L66.7541 94.6743L66.6759 94.9627L66.6026 95.261L66.5342 95.5544L66.4659 95.8477L66.4024 96.1411L66.3486 96.4345L66.2949 96.7327L66.2509 97.031L66.207 97.3243L66.1728 97.6275L66.1386 97.9209L66.1142 98.224L66.0897 98.5223L66.0751 98.8205L66.0653 99.1237L66.0555 99.4219V99.7251L66.0604 100.028L66.0653 100.326L66.08 100.634L66.1142 100.982L66.1728 101.363L66.2607 101.784L66.3633 102.233L66.4952 102.713L66.6466 103.211L66.8127 103.73L66.9983 104.248L67.1937 104.781L67.4037 105.309L67.6235 105.837L67.8482 106.355L68.0827 106.854L68.3172 107.338L68.5614 107.793L68.8007 108.218L69.0401 108.609L69.2697 108.961L69.5041 109.269L69.7239 109.528L69.9242 109.792L70.1049 110.066L70.3541 110.296L70.6862 110.55L70.9793 110.775L71.1014 110.868L71.1991 110.922L71.2773 110.946H71.3408L71.3896 110.922L71.4287 110.878L71.4678 110.814L71.4971 110.746L71.5215 110.663L71.5508 110.58L71.5752 110.492L71.6143 110.408L74.467 105.011L74.5793 104.751L74.6721 104.453L74.7552 104.14L74.8235 103.837L74.8871 103.549L75.0336 102.972L75.185 102.404L75.3267 101.832L75.4341 101.246L75.4781 100.923L75.5074 100.581L75.5269 100.214L75.5416 99.8375V99.4464L75.5318 99.0454L75.5172 98.6298L75.4976 98.2142L75.4634 97.7888L75.4244 97.3635L75.3804 96.9381L75.3267 96.5176L75.2681 96.102L75.2046 95.6962L75.1362 95.2952L75.0629 94.909L74.9847 94.5374L74.8968 94.1853L74.8089 93.848L74.7259 93.5399L74.6526 93.3248L74.5793 93.1096L74.4963 92.8994L74.4132 92.6843L74.3253 92.4789L74.2325 92.2736L74.1348 92.0682L74.0371 91.8677L73.9345 91.6624L73.832 91.4619L73.7294 91.2614L73.617 91.061L73.5145 90.8605L73.407 90.66L73.2946 90.4596L73.1921 90.264L73.0846 90.0635L72.982 89.8631L72.8794 89.6626L72.7769 89.4621L72.7183 89.3448L72.6499 89.1981L72.5717 89.0319L72.4838 88.8412L72.3812 88.6358L72.2738 88.4109L72.1565 88.1762L72.0393 87.9366L71.9172 87.6922L71.7902 87.4477L71.6632 87.2032L71.5362 86.9685L71.4092 86.7387L71.2822 86.5236L71.16 86.328L71.0428 86.1471L70.9353 85.9906L70.8328 85.8586L70.74 85.7608L70.652 85.6973L70.4664 85.6093H70.3199L70.1831 85.6973L70.0854 85.844L67.0423 93.4519Z" stroke="#F2F8FC" stroke-width="0.22" stroke-miterlimit="22.93"/>
<path fill-rule="evenodd" clip-rule="evenodd" d="M8.09881 94.1119L7.92296 94.3857L7.77154 94.6155L7.64942 94.8013L7.54684 94.9382L7.47357 95.0409L7.41496 95.1045L7.371 95.1338L7.34169 95.124L7.32703 95.0947L7.32215 95.0311V94.948L7.65919 84.8269V84.6068L7.60546 84.5188L7.48334 84.4993L5.168 84.5188L4.95796 84.5286L4.84561 84.5677L4.79188 84.6411L4.77723 84.7731L4.65023 87.4916V88.0441L4.64534 90.1172L4.60138 108.052L4.60626 108.184L4.6258 108.281L4.66977 108.345L4.74792 108.389L4.86515 108.418L5.03123 108.438L7.09257 108.663L7.32703 108.673L7.60058 108.638L7.83016 108.56L7.97181 108.438L8.04997 108.262L8.08416 108.008L8.07439 107.734L8.0402 107.47L7.99624 107.196L7.95227 106.932L7.92785 106.678L7.71292 100.571L7.71781 100.253L7.73735 99.9401L7.76665 99.6223L7.77642 99.3045L7.74223 98.9818L7.73246 98.8204L7.78619 98.7422L7.87412 98.7764L8.05974 98.928L8.46516 99.2849L8.87548 99.637L9.27114 99.9988L16.4174 107.255L16.52 107.333L16.6372 107.313L16.8277 107.186L18.8158 105.763L18.9379 105.661L18.9477 105.587L18.8549 105.499L11.1957 99.7445L10.59 99.28L10.2774 99.0404L8.37236 97.6372L8.23558 97.5198L8.20628 97.4269L8.25024 97.3096L9.16367 95.8232L9.35418 95.5983L9.55933 95.388L9.6668 95.1925L9.75961 94.9969L15.6261 87.7263L15.7043 87.6089L15.675 87.5258L15.5382 87.4231L13.5208 86.2399L13.4866 86.2203L13.4475 86.2057L13.4133 86.2008L13.3743 86.2057L13.3352 86.2203L13.2912 86.2448L13.2424 86.2839L13.1838 86.3377L13.1252 86.4061L13.0617 86.4893L12.9786 86.5919L12.9005 86.7142L12.7979 86.856L12.6904 87.0173L12.5683 87.1982L12.4315 87.4085L12.2801 87.6432L8.09881 94.1119Z" fill="#F2F8FC"/>
<path d="M8.09881 94.1119L7.92296 94.3857L7.77154 94.6155L7.64942 94.8013L7.54684 94.9382L7.47357 95.0409L7.41496 95.1045L7.371 95.1338L7.34169 95.124L7.32703 95.0947L7.32215 95.0311V94.948L7.65919 84.8269V84.6068L7.60546 84.5188L7.48334 84.4993L5.168 84.5188L4.95796 84.5286L4.84561 84.5677L4.79188 84.6411L4.77723 84.7731L4.65023 87.4916V88.0441L4.64534 90.1172L4.60138 108.052L4.60626 108.184L4.6258 108.281L4.66977 108.345L4.74792 108.389L4.86515 108.418L5.03123 108.438L7.09257 108.663L7.32703 108.673L7.60058 108.638L7.83016 108.56L7.97181 108.438L8.04997 108.262L8.08416 108.008L8.07439 107.734L8.0402 107.47L7.99624 107.196L7.95227 106.932L7.92785 106.678L7.71292 100.571L7.71781 100.253L7.73735 99.9401L7.76665 99.6223L7.77642 99.3045L7.74223 98.9818L7.73246 98.8204L7.78619 98.7422L7.87412 98.7764L8.05974 98.928L8.46516 99.2849L8.87548 99.637L9.27114 99.9988L16.4174 107.255L16.52 107.333L16.6372 107.313L16.8277 107.186L18.8158 105.763L18.9379 105.661L18.9477 105.587L18.8549 105.499L11.1957 99.7445L10.59 99.28L10.2774 99.0404L8.37236 97.6372L8.23558 97.5198L8.20628 97.4269L8.25024 97.3096L9.16367 95.8232L9.35418 95.5983L9.55933 95.388L9.6668 95.1925L9.75961 94.9969L15.6261 87.7263L15.7043 87.6089L15.675 87.5258L15.5382 87.4231L13.5208 86.2399L13.4866 86.2203L13.4475 86.2057L13.4133 86.2008L13.3743 86.2057L13.3352 86.2203L13.2912 86.2448L13.2424 86.2839L13.1838 86.3377L13.1252 86.4061L13.0617 86.4893L12.9786 86.5919L12.9005 86.7142L12.7979 86.856L12.6904 87.0173L12.5683 87.1982L12.4315 87.4085L12.2801 87.6432L8.09881 94.1119Z" stroke="#F2F8FC" stroke-width="0.22" stroke-miterlimit="22.93"/>
<path fill-rule="evenodd" clip-rule="evenodd" d="M60.6727 99.8815L60.658 99.9304L60.6141 99.9597H60.5652L60.5261 99.9206L57.9079 95.0556L57.7223 94.7085L57.5269 94.3613L57.3364 94.0142L57.1459 93.6621L56.9603 93.3003L56.7796 92.9385L56.6037 92.5669L56.4425 92.1953L56.2716 91.9459L56.0908 91.7064L55.9883 91.3934L55.8857 91.0805L55.7147 90.7676L55.534 90.4498L55.3532 90.132L55.1676 89.819L54.9869 89.5012L54.8062 89.1834L54.6303 88.8607L54.4642 88.538L54.303 88.2104L54.1614 87.873L54.1028 87.741L54.0393 87.609L53.9709 87.4721L53.8976 87.3401L53.8243 87.213L53.7413 87.081L53.6631 86.9489L53.585 86.812L53.5068 86.68L53.4238 86.548L53.3505 86.4209L53.2773 86.284L53.204 86.1471L53.1405 86.0102L53.0819 85.8733L53.0281 85.7315L52.9793 85.5946L52.9402 85.4479L52.9158 85.3061L52.8914 85.1594L52.8376 84.9687L52.7253 84.9052L52.6129 84.9687L52.5592 85.1496L52.525 85.6141L52.5201 86.0786L52.5348 86.5382L52.5543 87.0027L52.569 87.4672V87.829L52.5739 88.1957L52.569 88.5576L52.5641 88.9292L52.5592 89.2959L52.5446 89.6626L52.5299 90.0293L52.5201 90.4009L52.5006 90.7676L52.4859 91.1343L52.4615 91.4961L52.442 91.8628L52.4176 92.2295L52.3931 92.5865L52.3687 93.0118L52.3394 93.4274L52.3199 93.8479L52.3003 94.2684L52.2857 94.6889L52.271 95.1143L52.2564 95.5299L52.2466 95.9504L52.2368 96.3758L52.2319 96.7914L52.227 97.2168L52.2222 97.6324V98.0577V98.4782V98.8987L52.227 99.3192V99.7397L52.2319 100.16L52.2368 100.581L52.2466 101.006L52.2515 101.407L52.2466 101.813L52.2417 102.214V102.62L52.2319 103.021L52.227 103.426L52.2222 103.832V104.233L52.227 104.639L52.2319 105.04L52.2417 105.441L52.2612 105.847L52.2857 106.252L52.4078 107.842L52.4371 108.032L52.4908 108.115L52.6129 108.13L54.4935 108.106L54.5815 108.13L54.6792 108.164L54.8062 108.145L54.7964 108.042L54.7329 107.91L54.6499 107.705L54.6205 107.499L54.6254 107.294L54.645 107.093L54.6694 106.888L54.6792 106.678L54.557 97.1581L54.5473 96.4149L54.5668 96.1264L54.728 95.1387L54.7866 95.0165L54.9136 94.9529L55.0553 94.9627L55.1579 95.0507L56.1739 96.7718L56.3106 96.9967L56.4621 97.2314L63.8379 108.653L63.9991 108.907L64.1017 109.088L64.7221 110.017L64.7905 110.086L64.8882 110.081L64.9663 110.027L64.9858 109.929L63.1834 94.332L63.1101 93.6475L63.0564 92.9532L63.0027 92.2589L62.9587 91.5646L62.905 90.8703L62.8415 90.176L62.7975 89.7701L62.7487 89.3643L62.6949 88.9536L62.6412 88.5478L62.5875 88.1371L62.5386 87.7312L62.4995 87.3205L62.4751 86.9147L62.4605 86.504L62.436 86.3378L62.3677 86.2106L62.2358 86.1031L61.9964 86.0248L61.6105 85.9515L61.1611 85.8879L60.7411 85.8341L60.4382 85.795L60.2868 85.7755L60.194 85.7901L60.1354 85.8341L60.106 85.9319L60.0963 86.0786L60.0865 86.3867L60.0816 86.6898L60.6727 99.8815Z" fill="#F2F8FC"/>
<path d="M60.6727 99.8815L60.658 99.9304L60.6141 99.9597H60.5652L60.5261 99.9206L57.9079 95.0556L57.7223 94.7085L57.5269 94.3613L57.3364 94.0142L57.1459 93.6621L56.9603 93.3003L56.7796 92.9385L56.6037 92.5669L56.4425 92.1953L56.2716 91.9459L56.0908 91.7064L55.9883 91.3934L55.8857 91.0805L55.7147 90.7676L55.534 90.4498L55.3532 90.132L55.1676 89.819L54.9869 89.5012L54.8062 89.1834L54.6303 88.8607L54.4642 88.538L54.303 88.2104L54.1614 87.873L54.1028 87.741L54.0393 87.609L53.9709 87.4721L53.8976 87.3401L53.8243 87.213L53.7413 87.081L53.6631 86.9489L53.585 86.812L53.5068 86.68L53.4238 86.548L53.3505 86.4209L53.2773 86.284L53.204 86.1471L53.1405 86.0102L53.0819 85.8733L53.0281 85.7315L52.9793 85.5946L52.9402 85.4479L52.9158 85.3061L52.8914 85.1594L52.8376 84.9687L52.7253 84.9052L52.6129 84.9687L52.5592 85.1496L52.525 85.6141L52.5201 86.0786L52.5348 86.5382L52.5543 87.0027L52.569 87.4672V87.829L52.5739 88.1957L52.569 88.5576L52.5641 88.9292L52.5592 89.2959L52.5446 89.6626L52.5299 90.0293L52.5201 90.4009L52.5006 90.7676L52.4859 91.1343L52.4615 91.4961L52.442 91.8628L52.4176 92.2295L52.3931 92.5865L52.3687 93.0118L52.3394 93.4274L52.3199 93.8479L52.3003 94.2684L52.2857 94.6889L52.271 95.1143L52.2564 95.5299L52.2466 95.9504L52.2368 96.3758L52.2319 96.7914L52.227 97.2168L52.2222 97.6324V98.0577V98.4782V98.8987L52.227 99.3192V99.7397L52.2319 100.16L52.2368 100.581L52.2466 101.006L52.2515 101.407L52.2466 101.813L52.2417 102.214V102.62L52.2319 103.021L52.227 103.426L52.2222 103.832V104.233L52.227 104.639L52.2319 105.04L52.2417 105.441L52.2612 105.847L52.2857 106.252L52.4078 107.842L52.4371 108.032L52.4908 108.115L52.6129 108.13L54.4935 108.106L54.5815 108.13L54.6792 108.164L54.8062 108.145L54.7964 108.042L54.7329 107.91L54.6499 107.705L54.6205 107.499L54.6254 107.294L54.645 107.093L54.6694 106.888L54.6792 106.678L54.557 97.1581L54.5473 96.4149L54.5668 96.1264L54.728 95.1387L54.7866 95.0165L54.9136 94.9529L55.0553 94.9627L55.1579 95.0507L56.1739 96.7718L56.3106 96.9967L56.4621 97.2314L63.8379 108.653L63.9991 108.907L64.1017 109.088L64.7221 110.017L64.7905 110.086L64.8882 110.081L64.9663 110.027L64.9858 109.929L63.1834 94.332L63.1101 93.6475L63.0564 92.9532L63.0027 92.2589L62.9587 91.5646L62.905 90.8703L62.8415 90.176L62.7975 89.7701L62.7487 89.3643L62.6949 88.9536L62.6412 88.5478L62.5875 88.1371L62.5386 87.7312L62.4995 87.3205L62.4751 86.9147L62.4605 86.504L62.436 86.3378L62.3677 86.2106L62.2358 86.1031L61.9964 86.0248L61.6105 85.9515L61.1611 85.8879L60.7411 85.8341L60.4382 85.795L60.2868 85.7755L60.194 85.7901L60.1354 85.8341L60.106 85.9319L60.0963 86.0786L60.0865 86.3867L60.0816 86.6898L60.6727 99.8815Z" stroke="#F2F8FC" stroke-width="0.22" stroke-miterlimit="22.93"/>
<path d="M33.1865 85.174L33.123 85.0762L33.0058 85.0469L32.8934 85.0811L32.8397 85.1838L31.4622 91.4911L31.4134 91.721L31.3255 92.1659L28.1113 108.179L28.0918 108.316L28.126 108.399L28.2286 108.443L28.4142 108.472L30.7295 108.722L30.9054 108.731L31.0031 108.712L31.0519 108.634L31.0812 108.502L31.9849 100.473L32.0142 100.282L32.063 100.18L32.1461 100.131L32.2926 100.126L34.2367 100.18L34.354 100.189L34.4468 100.229L34.5249 100.273L34.5884 100.341L34.6324 100.419L34.6666 100.507L34.6959 100.6L34.7154 100.708L34.7301 100.81L34.7399 100.913L34.7447 101.016L34.7496 101.109L34.7594 101.202L34.7789 101.28L36.2932 108.022L36.342 108.233L36.386 108.389L36.43 108.497L36.4739 108.57L36.5374 108.609L36.6058 108.619L36.6937 108.614L37.6707 108.497L38.1445 108.453L38.7355 108.404L39.3119 108.335L39.7515 108.252L39.8785 108.203L39.9372 108.135L39.9616 108.003V107.841L39.9274 107.651L39.8785 107.436L39.8053 107.206L39.7173 106.961L39.6197 106.722L39.5171 106.477L39.4243 106.243L39.3315 106.027L39.2533 105.832L39.1898 105.661L39.0335 105.206L38.887 104.746L38.7453 104.287L38.6085 103.827L38.4766 103.368L38.3448 102.903L38.2226 102.439L38.0956 101.974L37.9931 101.666L37.8563 101.363L37.7146 101.06L37.6023 100.752L33.1865 85.174Z" stroke="#F2F8FC" stroke-width="0.22" stroke-miterlimit="22.93"/>
<path fill-rule="evenodd" clip-rule="evenodd" d="M22.4793 86.7973L22.4646 86.6359L22.4353 86.543L22.3816 86.499L22.2986 86.4941L20.5889 86.5284L20.4228 86.5333L20.3056 86.5528L20.2323 86.587L20.1835 86.6506L20.1639 86.7386L20.1542 86.8608L20.1346 87.5943L20.1151 88.2054L20.0956 88.8215L20.076 89.4327L20.0516 90.0537L20.0223 90.6648L19.9979 91.2809L19.9686 91.897L19.9393 92.513L19.9051 93.1291L19.8758 93.7452L19.8464 94.3613L19.8123 94.9773L19.7829 95.5934L19.7487 96.2095L19.7194 96.8255L19.6901 97.4416L19.6608 98.0577L19.6315 98.6737L19.6071 99.2898L19.5827 99.901L19.3482 105.998V106.189L19.3629 106.311L19.4019 106.384L19.4654 106.423L19.5778 106.438L27.2321 107.044L27.3933 107.049L27.4861 107.03L27.5301 106.976L27.5252 106.868L27.491 106.697L27.4324 106.453L27.3884 106.199L27.3591 105.944L27.3395 105.695L27.3298 105.441V105.186V104.927L27.3347 104.673L27.3395 104.419V104.16L27.3347 103.901L27.3249 103.641L27.3102 103.353L27.3151 103.079L27.3542 102.791L27.4275 102.61L27.4812 102.429L27.5252 100.835L27.5154 100.713L27.447 100.678L27.2858 100.713L22.6161 102.057L22.4842 102.047L22.4646 101.945L22.4695 101.808L22.4597 101.197L22.4304 100.586L22.4109 99.9792L22.4793 87.0466V86.7973Z" fill="#F2F8FC"/>
<path d="M22.4793 86.7973L22.4646 86.6359L22.4353 86.543L22.3816 86.499L22.2986 86.4941L20.5889 86.5284L20.4228 86.5333L20.3056 86.5528L20.2323 86.587L20.1835 86.6506L20.1639 86.7386L20.1542 86.8608L20.1346 87.5943L20.1151 88.2054L20.0956 88.8215L20.076 89.4327L20.0516 90.0537L20.0223 90.6648L19.9979 91.2809L19.9686 91.897L19.9393 92.513L19.9051 93.1291L19.8758 93.7452L19.8464 94.3613L19.8123 94.9773L19.7829 95.5934L19.7487 96.2095L19.7194 96.8255L19.6901 97.4416L19.6608 98.0577L19.6315 98.6737L19.6071 99.2898L19.5827 99.901L19.3482 105.998V106.189L19.3629 106.311L19.4019 106.384L19.4654 106.423L19.5778 106.438L27.2321 107.044L27.3933 107.049L27.4861 107.03L27.5301 106.976L27.5252 106.868L27.491 106.697L27.4324 106.453L27.3884 106.199L27.3591 105.944L27.3395 105.695L27.3298 105.441V105.186V104.927L27.3347 104.673L27.3395 104.419V104.16L27.3347 103.901L27.3249 103.641L27.3102 103.353L27.3151 103.079L27.3542 102.791L27.4275 102.61L27.4812 102.429L27.5252 100.835L27.5154 100.713L27.447 100.678L27.2858 100.713L22.6161 102.057L22.4842 102.047L22.4646 101.945L22.4695 101.808L22.4597 101.197L22.4304 100.586L22.4109 99.9792L22.4793 87.0466V86.7973Z" stroke="#F2F8FC" stroke-width="0.22" stroke-miterlimit="22.93"/>
<path fill-rule="evenodd" clip-rule="evenodd" d="M70.359 89.7309L70.4225 89.6087L70.5446 89.5598L70.6716 89.5843L70.7546 89.6869L71.9709 92.7331L72.0735 93.0362L72.1565 93.354L72.2298 93.6816L72.2884 94.0141L72.3373 94.3319L72.4105 94.6204L72.5131 94.8991L72.5962 95.1924L72.6694 95.5787L72.7525 96.0628L72.8111 96.5419L72.8404 96.9086L72.8306 97.2167L72.8209 97.5345L72.8111 97.8523L72.7964 98.1799L72.7867 98.5124L72.7671 98.84L72.7427 99.1773L72.7183 99.5147L72.6939 99.8521L72.6597 100.185L72.6157 100.522L72.5717 100.859L72.5229 101.187L72.4643 101.514L72.3959 101.837L72.3226 102.155L72.2396 102.463L72.1468 102.771L72.0491 103.069L71.9416 103.358L70.6032 106.639L70.5153 106.751L70.3785 106.79L70.2417 106.746L70.1587 106.629L69.5774 105.006L69.4846 104.712L69.4016 104.37L69.3283 103.993L69.255 103.578L69.2013 103.138L69.1476 102.668L69.1085 102.179L69.0694 101.681L69.045 101.162L69.0206 100.644L69.0108 100.126L69.0059 99.6125L69.0108 99.0991L69.0206 98.6102L69.0352 98.131L69.0597 97.6812L69.089 97.2558L69.1231 96.8597L69.1622 96.5077L69.216 96.1997L70.359 89.7309Z" fill="#F2F8FC"/>
<path fill-rule="evenodd" clip-rule="evenodd" d="M67.0423 93.4518L66.925 93.8429L66.842 94.2634L66.7541 94.6742L66.6759 94.9626L66.6026 95.2609L66.5342 95.5542L66.4659 95.8476L66.4024 96.141L66.3486 96.4343L66.2949 96.7326L66.2509 97.0309L66.207 97.3242L66.1728 97.6274L66.1386 97.9207L66.1142 98.2239L66.0897 98.5221L66.0751 98.8204L66.0653 99.1235L66.0555 99.4218V99.7249L66.0604 100.028L66.0653 100.326L66.08 100.634L66.1142 100.982L66.1728 101.363L66.2607 101.783L66.3633 102.233L66.4952 102.712L66.6466 103.211L66.8127 103.729L66.9983 104.248L67.1937 104.781L67.4037 105.309L67.6235 105.837L67.8482 106.355L68.0827 106.854L68.3172 107.338L68.5614 107.793L68.8007 108.218L69.0401 108.609L69.2697 108.961L69.5041 109.269L69.7239 109.528L69.9242 109.792L70.1049 110.066L70.3541 110.296L70.6862 110.55L70.9793 110.775L71.1014 110.868L71.1991 110.922L71.2773 110.946H71.3408L71.3896 110.922L71.4287 110.878L71.4678 110.814L71.4971 110.746L71.5215 110.663L71.5508 110.579L71.5752 110.491L71.6143 110.408L74.467 105.01L74.5793 104.751L74.6721 104.453L74.7552 104.14L74.8235 103.837L74.8871 103.548L75.0336 102.972L75.185 102.404L75.3267 101.832L75.4341 101.246L75.4781 100.923L75.5074 100.581L75.5269 100.214L75.5416 99.8374V99.4462L75.5318 99.0453L75.5172 98.6297L75.4976 98.2141L75.4634 97.7887L75.4244 97.3633L75.3804 96.938L75.3267 96.5175L75.2681 96.1019L75.2046 95.696L75.1362 95.2951L75.0629 94.9088L74.9847 94.5372L74.8968 94.1852L74.8089 93.8478L74.7259 93.5398L74.6526 93.3247L74.5793 93.1095L74.4963 92.8993L74.4132 92.6841L74.3253 92.4788L74.2325 92.2734L74.1348 92.0681L74.0371 91.8676L73.9345 91.6623L73.832 91.4618L73.7294 91.2613L73.617 91.0609L73.5145 90.8604L73.407 90.6599L73.2946 90.4595L73.1921 90.2639L73.0846 90.0634L72.982 89.8629L72.8794 89.6625L72.7769 89.462L72.7183 89.3447L72.6499 89.198L72.5717 89.0317L72.4838 88.841L72.3812 88.6357L72.2738 88.4108L72.1565 88.1761L72.0393 87.9365L71.9172 87.692L71.7902 87.4476L71.6632 87.2031L71.5362 86.9684L71.4092 86.7386L71.2822 86.5235L71.16 86.3279L71.0428 86.147L70.9353 85.9905L70.8328 85.8585L70.74 85.7607L70.652 85.6971L70.4664 85.6091H70.3199L70.1831 85.6971L70.0854 85.8438L67.0423 93.4518Z" fill="#F2F8FC"/>
<path d="M70.359 89.7311L70.4225 89.6088L70.5447 89.5599L70.6717 89.5844L70.7547 89.6871L71.971 92.7332L72.0736 93.0363L72.1566 93.3541L72.2299 93.6817L72.2885 94.0142L72.3373 94.332L72.4106 94.6205L72.5132 94.8992L72.5962 95.1926L72.6695 95.5788L72.7525 96.0629L72.8111 96.5421L72.8405 96.9088L72.8307 97.2168L72.8209 97.5346L72.8111 97.8524L72.7965 98.18L72.7867 98.5125L72.7672 98.8401L72.7428 99.1775L72.7183 99.5148L72.6939 99.8522L72.6597 100.185L72.6158 100.522L72.5718 100.859L72.523 101.187L72.4643 101.515L72.396 101.837L72.3227 102.155L72.2396 102.463L72.1468 102.771L72.0491 103.069L71.9417 103.358L70.6033 106.639L70.5153 106.751L70.3786 106.79L70.2418 106.746L70.1588 106.629L69.5775 105.006L69.4847 104.712L69.4016 104.37L69.3284 103.994L69.2551 103.578L69.2014 103.138L69.1476 102.669L69.1086 102.18L69.0695 101.681L69.0451 101.163L69.0206 100.644L69.0109 100.126L69.006 99.6126L69.0109 99.0992L69.0206 98.6103L69.0353 98.1311L69.0597 97.6813L69.089 97.2559L69.1232 96.8599L69.1623 96.5078L69.216 96.1998L70.359 89.7311Z" fill="#F2F8FC"/>
<path fill-rule="evenodd" clip-rule="evenodd" d="M43.5372 104.732H43.4248L43.3271 104.663L43.2929 104.556L43.5909 88.9439V88.6651L43.5616 88.3376V88.1615L43.6446 88.0686H43.7716L43.9182 88.1664L44.1624 88.3816L44.392 88.6065L44.5434 88.8461L44.6704 89.0759L44.8609 89.291L44.9635 89.3741L45.0661 89.4817L45.1686 89.6039L45.2712 89.7359L45.3738 89.8777L45.4715 90.0293L45.5692 90.1858L45.6669 90.352L45.7646 90.5183L45.8525 90.6796L45.9355 90.8458L46.0186 91.0072L46.0919 91.1637L46.1651 91.3103L46.2237 91.4472L46.2824 91.5744L46.5461 92.21L46.7659 92.8456L46.9418 93.4715L47.0786 94.0973L47.1714 94.7183L47.2251 95.3343V95.9406V96.5518L47.1665 97.1532L47.0737 97.7546L46.9516 98.3462L46.7904 98.9379L46.595 99.5197L46.3752 100.106L46.1212 100.683L45.8378 101.255L45.5301 101.828L45.198 102.39L44.8316 102.952L44.4506 103.509L43.6251 104.659L43.5372 104.732ZM42.36 84.3038L42.2427 84.2549L42.1157 84.2793L42.018 84.3624L41.9741 84.4847L41.5833 91.5695V91.8922V92.21V92.5278V92.8505V93.1732V95.129V95.4517V95.7744V96.0971V96.3953L41.5247 96.7034L41.4661 97.0114L41.4221 97.3146V97.7546V98.6396V99.0845V99.5295V99.9695V100.41V100.855V101.343V101.832V102.321V102.81V103.299V103.788V104.096L41.3684 104.404L41.3244 104.712V105.006L41.4954 108.643L41.5344 108.761L41.6321 108.839H41.7543L41.8666 108.78L44.2406 106.59L44.773 106.101L45.2908 105.612L45.7792 105.074L46.2677 104.512L46.7269 103.93L47.1665 103.329L47.5768 102.678L47.9578 102.048L48.3046 101.402L48.6221 100.737L48.9054 100.062L49.1448 99.3779L49.3499 98.6836L49.516 97.9746L49.6333 97.2559L49.7065 96.5371V95.8086V95.0752L49.6284 94.3369L49.4916 93.5986L49.433 93.3541L49.3744 93.1048L49.3109 92.8652L49.2474 92.6256L49.1692 92.386L49.0959 92.1464L49.0178 91.9166L48.9347 91.6819L48.8468 91.4472L48.7491 91.2174L48.6514 90.9925L48.5489 90.7676L48.4414 90.5427L48.3242 90.3227L48.2069 90.1075L48.075 89.8973L47.9432 89.6822L47.8015 89.4719L47.6598 89.2714L47.5035 89.071L47.3863 88.9145L47.2691 88.7532L47.1372 88.5771L47.0053 88.3962L46.8734 88.2104L46.7366 88.0197L46.595 87.8339L46.4533 87.6433L46.3068 87.4575L46.1602 87.2814L46.0088 87.1103L45.8623 86.9441L45.7109 86.7974L45.5594 86.6605L45.4275 86.5431L42.36 84.3038Z" fill="#F2F8FC"/>
<path d="M43.5372 104.732H43.4248L43.3271 104.663L43.2929 104.556L43.5909 88.9439V88.6651L43.5616 88.3376V88.1615L43.6446 88.0686H43.7716L43.9182 88.1664L44.1624 88.3816L44.392 88.6065L44.5434 88.8461L44.6704 89.0759L44.8609 89.291L44.9635 89.3741L45.0661 89.4817L45.1686 89.6039L45.2712 89.7359L45.3738 89.8777L45.4715 90.0293L45.5692 90.1858L45.6669 90.352L45.7646 90.5183L45.8525 90.6796L45.9355 90.8458L46.0186 91.0072L46.0919 91.1637L46.1651 91.3103L46.2237 91.4472L46.2824 91.5744L46.5461 92.21L46.7659 92.8456L46.9418 93.4715L47.0786 94.0973L47.1714 94.7183L47.2251 95.3343V95.9406V96.5518L47.1665 97.1532L47.0737 97.7546L46.9516 98.3462L46.7904 98.9379L46.595 99.5197L46.3752 100.106L46.1212 100.683L45.8378 101.255L45.5301 101.828L45.198 102.39L44.8316 102.952L44.4506 103.509L43.6251 104.659L43.5372 104.732ZM42.36 84.3038L42.2427 84.2549L42.1157 84.2793L42.018 84.3624L41.9741 84.4847L41.5833 91.5695V91.8922V92.21V92.5278V92.8505V93.1732V95.129V95.4517V95.7744V96.0971V96.3953L41.5247 96.7034L41.4661 97.0114L41.4221 97.3146V97.7546V98.6396V99.0845V99.5295V99.9695V100.41V100.855V101.343V101.832V102.321V102.81V103.299V103.788V104.096L41.3684 104.404L41.3244 104.712V105.006L41.4954 108.643L41.5344 108.761L41.6321 108.839H41.7543L41.8666 108.78L44.2406 106.59L44.773 106.101L45.2908 105.612L45.7792 105.074L46.2677 104.512L46.7269 103.93L47.1665 103.329L47.5768 102.678L47.9578 102.048L48.3046 101.402L48.6221 100.737L48.9054 100.062L49.1448 99.3779L49.3499 98.6836L49.516 97.9746L49.6333 97.2559L49.7065 96.5371V95.8086V95.0752L49.6284 94.3369L49.4916 93.5986L49.433 93.3541L49.3744 93.1048L49.3109 92.8652L49.2474 92.6256L49.1692 92.386L49.0959 92.1464L49.0178 91.9166L48.9347 91.6819L48.8468 91.4472L48.7491 91.2174L48.6514 90.9925L48.5489 90.7676L48.4414 90.5427L48.3242 90.3227L48.2069 90.1075L48.075 89.8973L47.9432 89.6822L47.8015 89.4719L47.6598 89.2714L47.5035 89.071L47.3863 88.9145L47.2691 88.7532L47.1372 88.5771L47.0053 88.3962L46.8734 88.2104L46.7366 88.0197L46.595 87.8339L46.4533 87.6433L46.3068 87.4575L46.1602 87.2814L46.0088 87.1103L45.8623 86.9441L45.7109 86.7974L45.5594 86.6605L45.4275 86.5431L42.36 84.3038Z" stroke="#F2F8FC" stroke-width="0.22" stroke-miterlimit="22.93"/>
<path fill-rule="evenodd" clip-rule="evenodd" d="M33.1231 85.0762L33.1866 85.174L37.6023 100.752L37.7147 101.06L37.8563 101.363L37.9931 101.666L38.0957 101.974L38.2227 102.439L38.3448 102.903L38.4767 103.368L38.6086 103.827L38.7454 104.287L38.887 104.746L39.0336 105.206L39.1899 105.661L39.2534 105.832L39.3315 106.027L39.4243 106.243L39.5171 106.477L39.6197 106.722L39.7174 106.961L39.8053 107.206L39.8786 107.436L39.9274 107.651L39.9616 107.841V108.003L39.9372 108.135L39.8786 108.203L39.7516 108.252L39.312 108.335L38.7356 108.404L38.1445 108.453L37.6707 108.497L36.6938 108.614L36.6059 108.619L36.5375 108.609L36.474 108.57L36.43 108.497L36.3861 108.389L36.3421 108.233L36.2932 108.022L34.779 101.28L34.7595 101.202L34.7497 101.109L34.7448 101.016L34.7399 100.913L34.7301 100.81L34.7155 100.708L34.696 100.6L34.6666 100.507L34.6325 100.419L34.5885 100.341L34.525 100.273L34.4468 100.229L34.354 100.189L34.2368 100.18L32.2927 100.126L32.1461 100.131L32.0631 100.18L32.0143 100.282L31.985 100.473L31.0813 108.502L31.052 108.634L31.0031 108.712L30.9054 108.731L30.7296 108.722L28.4142 108.472L28.2286 108.443L28.1261 108.399L28.0919 108.316L28.1114 108.179L31.3255 92.1659L31.4134 91.721L31.4623 91.4911L32.8398 85.1838L32.8935 85.0811L33.0059 85.0469L33.1231 85.0762ZM33.123 91.462L33.0742 91.5989L32.3464 97.9209L32.2878 98.1556L32.234 98.405L32.2291 98.5663L32.2536 98.6641L32.322 98.7032L32.449 98.7179L32.7567 98.7863L33.0547 98.8597L34.2465 98.889L34.3638 98.8841L34.4077 98.8352L34.3979 98.713L33.4015 92.5865L33.4112 92.4643L33.4259 92.3323L33.3722 92.0291L33.3331 91.7211L33.3087 91.4962L33.2207 91.4179L33.123 91.462Z" fill="#F2F8FC"/>
<path d="M33.0742 91.5988L33.123 91.4618L33.2207 91.4178L33.3086 91.4961L33.3331 91.721L33.3721 92.029L33.4259 92.3322L33.4112 92.4642L33.4014 92.5864L34.3979 98.7129L34.4077 98.8351L34.3637 98.884L34.2465 98.8889L33.0546 98.8596L32.7567 98.7862L32.4489 98.7178L32.3219 98.7031L32.2535 98.664L32.2291 98.5662L32.234 98.4048L32.2877 98.1555L32.3464 97.9208L33.0742 91.5988Z" stroke="#F2F8FC" stroke-width="0.22" stroke-miterlimit="22.93"/>
<path fill-rule="evenodd" clip-rule="evenodd" d="M42.2183 70.9653C41.6859 68.765 39.2191 69.122 40.2644 66.3643C40.8799 64.7704 43.0634 63.46 42.1206 62.8928C41.5344 62.5359 41.9399 62.6826 41.8031 62.3648C41.1534 62.575 41.4319 62.4283 40.8262 62.2621C40.6308 62.3892 38.5011 65.4696 38.3203 66.9022C37.9051 70.3003 42.5016 67.616 40.5722 73.7474C40.1274 74.9841 39.5969 76.1882 38.9846 77.3509C38.7306 78.1087 39.605 77.3509 40.5477 76.7935C40.7822 76.6517 42.0913 72.97 42.1548 72.4468C42.2196 71.9558 42.2409 71.46 42.2183 70.9653Z" fill="#F2F8FC"/>
<path d="M42.2183 70.9653C41.6859 68.765 39.2191 69.122 40.2644 66.3643C40.8799 64.7704 43.0634 63.46 42.1206 62.8928C41.5344 62.5359 41.9399 62.6826 41.8031 62.3648C41.1534 62.575 41.4319 62.4283 40.8262 62.2621C40.6308 62.3892 38.5011 65.4696 38.3203 66.9022C37.9051 70.3003 42.5016 67.616 40.5722 73.7474C40.1274 74.9841 39.5969 76.1882 38.9846 77.3509C38.7306 78.1087 39.605 77.3509 40.5477 76.7935C40.7822 76.6517 42.0913 72.97 42.1548 72.4468C42.2196 71.9558 42.2409 71.46 42.2183 70.9653V70.9653Z" stroke="#F2F8FC" stroke-width="0.22" stroke-miterlimit="22.93"/>
<path fill-rule="evenodd" clip-rule="evenodd" d="M17.873 21.7678C17.7363 23.1906 17.1403 29.1019 14.5563 28.3098C12.7979 27.7524 12.6367 28.0165 13.0177 26.0411C13.2375 24.9068 14.781 24.633 15.8508 21.4402C17.0524 17.8611 12.5194 17.5042 11.65 20.1298C10.3457 24.0414 12.2215 24.7014 9.69609 27.2782C9.24181 27.7378 6.88739 28.3147 5.88603 26.7892C5.52698 26.3136 5.26476 25.772 5.11425 25.1953C4.92375 24.3054 5.29987 12.3018 5.15821 11.8373C3.51208 12.3263 -0.0586284 11.5977 0.058604 12.3263C0.444494 14.6732 0.547072 13.5877 0.747344 16.6436C0.889 18.8048 1.16743 19.7827 1.23581 22.2714C1.40031 24.6125 1.78796 26.9325 2.39348 29.1997C2.75983 30.7008 2.98453 32.7299 4.77721 34.0598C5.32429 34.4656 7.79106 35.0084 7.88387 35.4386C8.42607 37.9322 8.98781 43.4329 8.72892 46.6061C8.65565 47.5009 8.8315 49.266 8.81196 50.3465C8.79242 51.4271 8.72892 54.2581 8.12322 55.3093C6.94601 57.3873 3.57069 56.2872 2.38371 58.287C0.81573 60.9126 1.43608 65.8949 1.46539 68.9411C1.46539 69.7136 1.33351 76.4317 1.5582 76.5832C1.7829 76.7348 5.69064 76.5148 5.72484 76.1676C5.86649 74.7008 5.14356 74.2705 5.01167 71.5813C4.82119 69.0283 4.80161 66.4654 4.95306 63.9098C4.95456 63.5002 5.00042 63.092 5.08983 62.6924C5.52945 61.118 5.21195 60.8344 6.7897 59.8027C9.08062 58.859 10.3116 58.9079 12.3534 59.4409C16.5395 60.5361 15.8948 62.8635 16.5591 67.9827C16.8912 70.5595 16.8912 73.102 17.0475 75.6934C17.0768 76.2899 19.0356 75.8449 20.6085 75.9965C21.0383 76.0356 22.1765 76.153 22.2058 75.5858C22.3425 72.9015 22.069 72.4566 22.0299 70.271C22.0299 69.5376 21.2044 61.5825 21.0872 61.1277C20.5987 59.2746 20.4619 58.683 18.8451 57.49C16.3344 55.6124 17.6581 56.3703 13.3596 55.456C11.8942 55.055 12.6122 49.6131 12.4755 48.3663L12.5878 45.3984C12.552 41.9491 12.7921 38.5024 13.3059 35.0915C13.4817 33.742 19.314 34.451 20.5792 30.7594C21.2142 28.9015 20.7208 25.3811 21.1458 24.1245C21.18 24.0316 21.7124 11.7249 21.3558 10.6198C20.8136 10.3949 17.2722 10.6785 16.8912 11.1088C16.9303 11.5488 17.834 12.7125 17.8682 15.0741L17.873 21.7678Z" fill="#F2F8FC"/>
<path d="M17.873 21.7678C17.7363 23.1906 17.1403 29.1019 14.5563 28.3098C12.7979 27.7524 12.6367 28.0165 13.0177 26.0411C13.2375 24.9068 14.781 24.633 15.8508 21.4402C17.0524 17.8611 12.5194 17.5042 11.65 20.1298C10.3457 24.0414 12.2215 24.7014 9.69609 27.2782C9.24181 27.7378 6.88739 28.3147 5.88603 26.7892C5.52698 26.3136 5.26476 25.772 5.11425 25.1953C4.92375 24.3054 5.29987 12.3018 5.15821 11.8373C3.51208 12.3263 -0.0586284 11.5977 0.058604 12.3263C0.444494 14.6732 0.547072 13.5877 0.747344 16.6436C0.889 18.8048 1.16743 19.7827 1.23581 22.2714C1.40031 24.6125 1.78796 26.9325 2.39348 29.1997C2.75983 30.7008 2.98453 32.7299 4.77721 34.0598C5.32429 34.4656 7.79106 35.0084 7.88387 35.4386C8.42607 37.9322 8.98781 43.4329 8.72892 46.6061C8.65565 47.5009 8.8315 49.266 8.81196 50.3465C8.79242 51.4271 8.72892 54.2581 8.12322 55.3093C6.94601 57.3873 3.57069 56.2872 2.38371 58.287C0.81573 60.9126 1.43608 65.8949 1.46539 68.9411C1.46539 69.7136 1.33351 76.4317 1.5582 76.5832C1.7829 76.7348 5.69064 76.5148 5.72484 76.1676C5.86649 74.7008 5.14356 74.2705 5.01167 71.5813C4.82119 69.0283 4.80161 66.4654 4.95306 63.9098C4.95456 63.5002 5.00042 63.092 5.08983 62.6924C5.52945 61.118 5.21195 60.8344 6.7897 59.8027C9.08062 58.859 10.3116 58.9079 12.3534 59.4409C16.5395 60.5361 15.8948 62.8635 16.5591 67.9827C16.8912 70.5595 16.8912 73.102 17.0475 75.6934C17.0768 76.2899 19.0356 75.8449 20.6085 75.9965C21.0383 76.0356 22.1765 76.153 22.2058 75.5858C22.3425 72.9015 22.069 72.4566 22.0299 70.271C22.0299 69.5376 21.2044 61.5824 21.0872 61.1277C20.5987 59.2746 20.4619 58.683 18.8451 57.49C16.3344 55.6124 17.6581 56.3703 13.3596 55.456C11.8942 55.0551 12.6122 49.6131 12.4755 48.3663L12.5878 45.3984C12.552 41.9491 12.7921 38.5024 13.3059 35.0915C13.4817 33.742 19.314 34.451 20.5792 30.7594C21.2142 28.9015 20.7208 25.3811 21.1458 24.1245C21.18 24.0316 21.7124 11.7249 21.3558 10.6198C20.8136 10.3949 17.2722 10.6785 16.8912 11.1088C16.9303 11.5488 17.834 12.7125 17.8682 15.0741L17.873 21.7678Z" stroke="#F2F8FC" stroke-width="0.22" stroke-miterlimit="22.93"/>
<path fill-rule="evenodd" clip-rule="evenodd" d="M31.5257 67.621L31.3157 67.8312C31.047 67.7188 31.2815 62.3746 31.0421 61.9933C29.142 61.6999 29.4351 61.9297 29.4742 64.1691C29.4742 65.367 29.4742 76.9207 29.8503 76.9892L31.428 76.95C31.6478 76.5002 30.7491 68.9558 31.3548 69.1269C31.3548 69.1269 35.8926 74.6667 36.5374 75.9428C36.8989 76.6567 38.5792 75.4148 38.4913 75.2583L35.6582 72.4713L33.2158 70.1097C31.1447 68.2664 32.3366 68.6429 34.735 65.7728C35.7119 64.6042 38.1542 63.6019 36.2736 62.7364C36.0245 62.624 36.0929 62.4284 35.8145 62.2475C35.7656 62.2817 31.6869 67.4108 31.5257 67.621Z" fill="#F2F8FC"/>
<path d="M31.5257 67.621L31.3157 67.8312C31.047 67.7188 31.2815 62.3746 31.0421 61.9933C29.142 61.6999 29.4351 61.9297 29.4742 64.1691C29.4742 65.367 29.4742 76.9207 29.8503 76.9892L31.428 76.95C31.6478 76.5002 30.7491 68.9558 31.3548 69.1269C31.3548 69.1269 35.8926 74.6667 36.5374 75.9428C36.8989 76.6567 38.5792 75.4148 38.4913 75.2583L35.6582 72.4713L33.2158 70.1097C31.1447 68.2664 32.3366 68.6429 34.735 65.7728C35.7119 64.6042 38.1542 63.6019 36.2736 62.7364C36.0245 62.624 36.0929 62.4284 35.8145 62.2475C35.7656 62.2817 31.6869 67.4108 31.5257 67.621Z" stroke="#F2F8FC" stroke-width="0.48" stroke-linecap="round" stroke-linejoin="round"/>
<path fill-rule="evenodd" clip-rule="evenodd" d="M46.4045 63.8267L49.008 66.5355L49.2425 67.2787L46.6439 70.3395L46.4045 63.8267ZM46.8637 71.8259C46.9809 71.0582 49.1497 68.7015 50.1559 68.2957C50.8545 68.0121 50.5223 67.4254 49.8971 66.4524C49.3572 65.5497 48.7164 64.7115 47.9871 63.9539C47.0835 63.0884 47.7722 63.4649 46.424 62.8977C45.0759 62.3306 45.535 62.0568 45.4471 66.0465C45.4031 67.8752 45.5937 68.3201 45.4471 70.936V76.6371C45.7939 76.8131 45.8818 76.5735 47.0053 76.7691C47.3131 76.8229 47.4449 76.6615 47.103 76.5344C47.103 76.2361 47.1812 76.3388 47.2007 76.1139L46.8637 71.8259Z" fill="#F2F8FC"/>
<path d="M46.4045 63.8267L49.008 66.5355L49.2425 67.2787L46.6439 70.3395L46.4045 63.8267ZM46.8637 71.8259C46.9809 71.0582 49.1497 68.7015 50.1559 68.2957C50.8545 68.0121 50.5223 67.4254 49.8971 66.4524C49.3572 65.5497 48.7164 64.7115 47.9871 63.9539C47.0835 63.0884 47.7722 63.4649 46.424 62.8977C45.0759 62.3306 45.535 62.0568 45.4471 66.0465C45.4031 67.8752 45.5937 68.3201 45.4471 70.936V76.6371C45.7939 76.8131 45.8818 76.5735 47.0053 76.7691C47.3131 76.8229 47.4449 76.6615 47.103 76.5344C47.103 76.2361 47.1812 76.3388 47.2007 76.1139L46.8637 71.8259Z" stroke="#F2F8FC" stroke-width="0.22" stroke-miterlimit="22.93"/>
<path fill-rule="evenodd" clip-rule="evenodd" d="M33.7971 64.6873L34.3295 64.0565L34.2856 64.5992L33.7971 64.6873Z" fill="#F2F8FC"/>
<path d="M33.7971 64.6873L34.3295 64.0565L34.2856 64.5992L33.7971 64.6873Z" stroke="#F2F8FC" stroke-width="0.22" stroke-miterlimit="22.93"/>
<path fill-rule="evenodd" clip-rule="evenodd" d="M41.3684 62.3551L41.9399 62.6582L41.852 62.272L41.3684 62.3551Z" fill="#F2F8FC"/>
<path d="M41.3684 62.3551L41.9399 62.6582L41.852 62.272L41.3684 62.3551Z" stroke="#F2F8FC" stroke-width="0.22" stroke-miterlimit="22.93"/>
<path fill-rule="evenodd" clip-rule="evenodd" d="M43.8596 13.4558C43.8181 14.3769 43.6454 15.2874 43.3467 16.1596C42.8045 17.7243 43.1025 17.9052 41.5052 17.8269C40.8506 17.7927 41.1877 17.1864 40.9385 15.7783C40.7822 14.9128 39.3364 13.1722 39.351 12.1454C39.351 11.9303 40.3963 9.08462 37.9882 8.25831C35.1404 7.28042 34.3003 13.7443 36.7426 13.3238L37.0699 13.2895C37.5161 14.4158 37.8022 15.5992 37.9198 16.805C37.8758 18.3892 36.1662 17.8758 35.8096 17.558C35.0965 16.9175 33.1572 15.9983 32.6785 14.3701C32.2682 12.9619 31.5551 4.42988 31.7798 2.50344C31.8277 1.86724 31.8048 1.22768 31.7114 0.59656C31.5209 0.528108 28.9515 0.303194 28.5705 0.488992C27.5936 0.977936 29.2739 13.7443 29.3716 14.551C29.5377 15.8076 29.9382 18.1496 30.9005 19.0151C32.4381 20.3266 34.2896 21.2162 36.2737 21.5967C36.6547 21.6603 36.6351 22.0856 36.8501 22.775C37.9052 26.0314 37.8758 29.5567 37.6707 33.0429C37.5925 34.3826 38.1298 40.1179 37.402 40.866C35.7559 42.5381 30.9103 40.7291 30.4267 46.8653L30.5635 56.7517C30.5635 59.0644 30.075 59.4605 30.7442 59.5583C31.5062 59.6658 32.6102 59.5583 33.5089 59.5583C34.691 59.6169 34.608 59.5583 34.4273 58.0523C34.227 56.3557 34.2221 54.8986 34.1684 53.1971C34.1 50.9822 34.0853 47.8187 34.8034 46.2443C36.0636 43.472 39.1996 42.0199 40.8115 43.3107C43.8107 45.6869 44.1527 49.4909 44.5141 53.0651C44.7681 55.5978 45.0026 59.0742 45.3885 59.1573C45.7744 59.2405 47.7673 58.9715 48.671 58.8933C49.3158 58.8395 49.2865 59.1476 49.3793 57.3042C49.4184 56.5611 48.4023 49.4371 48.4023 49.4029C48.1093 48.6255 48.2753 46.2443 47.4254 44.4499C46.5755 42.6555 44.0696 41.1544 42.1646 41.0909C41.7103 41.0909 41.5296 41.0909 41.5198 40.6704C41.5198 40.0054 41.3147 38.0252 41.2463 36.6073C41.2072 35.7418 41.1779 35.0866 41.1779 35.0818C41.1779 35.0769 41.1779 27.3222 41.1779 26.8871C41.1779 24.9704 41.2267 22.6968 41.4807 22.5208C41.7347 22.3448 43.122 23.22 45.877 21.5429C46.3582 21.2614 46.765 20.8685 47.0633 20.3972C47.3616 19.9259 47.5427 19.3899 47.5915 18.8342C47.6501 17.602 48.4951 13.7002 48.5293 11.192C48.5293 9.95494 48.7589 8.45388 48.7736 7.28042C48.7736 6.73769 48.334 0.581891 48.1874 0.293415C47.992 -0.0977402 43.5909 -0.039067 43.5079 0.293415C43.4004 0.728575 43.547 4.09251 43.6788 6.70347C43.7472 8.80103 43.9622 11.4707 43.8596 13.4558Z" fill="#F2F8FC"/>
<path d="M43.8596 13.4558C43.8181 14.3769 43.6454 15.2874 43.3467 16.1596C42.8045 17.7243 43.1025 17.9052 41.5052 17.8269C40.8506 17.7927 41.1877 17.1864 40.9385 15.7783C40.7822 14.9128 39.3364 13.1722 39.351 12.1454C39.351 11.9303 40.3963 9.08462 37.9882 8.25831C35.1404 7.28042 34.3003 13.7443 36.7426 13.3238L37.0699 13.2895C37.5161 14.4158 37.8022 15.5992 37.9198 16.805C37.8758 18.3892 36.1662 17.8758 35.8096 17.558C35.0965 16.9175 33.1572 15.9983 32.6785 14.3701C32.2682 12.9619 31.5551 4.42988 31.7798 2.50344C31.8277 1.86724 31.8048 1.22768 31.7114 0.59656C31.5209 0.528108 28.9515 0.303194 28.5705 0.488992C27.5936 0.977936 29.2739 13.7443 29.3716 14.551C29.5377 15.8076 29.9382 18.1496 30.9005 19.0151C32.4381 20.3266 34.2896 21.2162 36.2737 21.5967C36.6547 21.6603 36.6351 22.0856 36.8501 22.775C37.9052 26.0314 37.8758 29.5567 37.6707 33.0429C37.5925 34.3826 38.1298 40.1179 37.402 40.866C35.7559 42.5381 30.9103 40.7291 30.4267 46.8653L30.5635 56.7517C30.5635 59.0644 30.075 59.4605 30.7442 59.5583C31.5062 59.6658 32.6102 59.5583 33.5089 59.5583C34.691 59.6169 34.608 59.5583 34.4273 58.0523C34.227 56.3557 34.2221 54.8986 34.1684 53.1971C34.1 50.9822 34.0853 47.8187 34.8034 46.2443C36.0636 43.472 39.1996 42.0199 40.8115 43.3107C43.8107 45.6869 44.1527 49.4909 44.5141 53.0651C44.7681 55.5978 45.0026 59.0742 45.3885 59.1573C45.7744 59.2405 47.7673 58.9715 48.671 58.8933C49.3158 58.8395 49.2865 59.1476 49.3793 57.3042C49.4184 56.5611 48.4023 49.4371 48.4023 49.4029C48.1093 48.6255 48.2753 46.2443 47.4254 44.4499C46.5755 42.6555 44.0696 41.1544 42.1646 41.0909C41.7103 41.0909 41.5296 41.0909 41.5198 40.6704C41.5198 40.0054 41.3147 38.0252 41.2463 36.6073C41.2072 35.7418 41.1779 35.0866 41.1779 35.0818C41.1779 35.0769 41.1779 27.3222 41.1779 26.8871C41.1779 24.9704 41.2267 22.6968 41.4807 22.5208C41.7347 22.3448 43.122 23.22 45.877 21.5429C46.3582 21.2614 46.765 20.8685 47.0633 20.3972C47.3616 19.9259 47.5427 19.3899 47.5915 18.8342C47.6501 17.602 48.4951 13.7003 48.5293 11.192C48.5293 9.95494 48.7589 8.45388 48.7736 7.28042C48.7736 6.73769 48.334 0.581891 48.1874 0.293415C47.992 -0.0977402 43.5909 -0.039067 43.5079 0.293415C43.4004 0.728575 43.547 4.09251 43.6788 6.70347C43.7472 8.80103 43.9622 11.4707 43.8596 13.4558Z" stroke="#F2F8FC" stroke-width="0.22" stroke-miterlimit="22.93"/>
<path fill-rule="evenodd" clip-rule="evenodd" d="M61.6349 11.9302C61.7717 11.0697 60.5261 11.2702 57.7272 11.2751C57.2778 11.2751 57.82 12.4388 57.7956 14.7319C57.7565 19.1324 58.2401 23.3422 58.5722 27.4444C58.6211 28.3881 58.963 31.9867 59.6127 32.5343C61.8547 34.4265 64.4583 34.1332 64.9174 34.4901C65.1617 34.6759 65.4792 43.4427 65.5964 44.7579C65.6843 45.7358 65.8651 48.4984 65.9481 50.7768C65.9725 51.4369 65.8944 54.4977 65.9481 54.8888C66.1923 56.4681 57.8053 53.0846 57.6441 61.1718C57.5709 65.2691 57.7663 72.8624 58.4403 76.2704L58.4843 76.4268C58.9728 76.5588 61.0781 76.8278 61.5861 76.505C61.5861 76.461 60.8241 72.5935 60.7654 71.8503C60.6238 70.0217 60.3747 61.2256 61.9768 60.1157C62.5568 59.7664 63.208 59.5525 63.8819 59.4898C65.6257 59.0644 65.2154 59.2307 67.2621 59.2111C69.4113 59.2111 71.1698 59.8321 71.5069 62.2279C71.8195 64.5357 72.6499 71.6156 72.518 74.4515C72.4887 75.0235 72.1761 77.6345 72.9137 77.703C73.4803 77.7567 76.2401 78.0159 76.289 77.5661C76.6944 73.8452 76.8751 66.6088 76.0301 62.7119C75.8005 61.646 75.8445 60.5068 75.4439 59.4751C73.8808 55.4658 72.4252 57.0304 69.0694 55.5929C68.9424 55.5391 68.9278 55.4609 68.9278 55.3338C69.1134 48.1756 69.1085 47.0657 68.9913 39.9614L69.0841 38.0056L69.382 34.6857C70.1929 34.407 75.2436 34.3239 76.2206 32.3583C77.5688 29.6936 78.3747 26.2759 78.7313 22.9413C79.1416 19.0786 78.9023 14.9226 78.8339 11.0502C78.8339 11.0502 78.8339 11.2702 78.7948 11.6369C78.619 10.8546 78.9169 10.8301 76.0057 11.0159C75.1167 11.0746 75.693 12.3067 75.6344 14.9959C75.5758 17.6851 75.4879 20.3254 75.2632 23.0048C75.1069 24.9264 75.1753 28.8135 72.5229 29.0286C71.8781 29.0286 69.9096 29.0971 69.4944 29.5176L69.2746 29.6398C69.1866 29.0139 69.6165 24.7944 69.9487 24.6135C70.4371 24.3299 71.2187 24.0903 71.4971 23.5084C71.8683 22.7604 71.4678 21.9878 71.1454 21.2789C70.3687 19.5627 65.5769 20.032 66.1386 22.3399L66.2803 22.6528C67.521 24.3494 67.3354 23.9632 67.3256 26.2563C67.3256 26.6572 67.0276 29.3415 66.7052 29.3611C66.1093 29.3904 64.5999 29.2975 64.0821 28.9699C62.4946 27.9578 62.1283 26.3345 61.6007 24.5694C61.2113 23.1927 61.0285 21.7657 61.0585 20.3352C61.1513 16.7757 61.0585 15.1084 61.6593 11.9302" fill="#F2F8FC"/>
<path fill-rule="evenodd" clip-rule="evenodd" d="M25.7178 2.22473C25.6397 3.09505 25.2929 3.39819 24.8777 3.35908C24.5625 3.29984 24.2805 3.1256 24.0863 2.87013C23.8444 2.58449 23.6647 2.25142 23.5588 1.89224C23.3439 1.15883 23.5002 0.352072 24.5015 0.0635953C24.5869 0.0374956 24.6763 0.0275468 24.7653 0.0342587C24.8729 0.0474069 24.9764 0.0839861 25.0683 0.141426C25.1603 0.198865 25.2386 0.275772 25.2977 0.36674C25.4234 0.553209 25.5159 0.759966 25.5713 0.97792C25.6879 1.38605 25.7374 1.81046 25.7178 2.23451M26.0207 7.80357C26.0207 8.59077 25.9963 9.20684 24.9265 9.35841C24.8269 9.36984 24.726 9.36147 24.6296 9.33379C24.5332 9.3061 24.4432 9.25963 24.3648 9.19706C24.1664 9.04773 24.0003 8.85979 23.8763 8.64456C23.6306 8.02381 23.5368 7.35322 23.6028 6.68878C23.6147 6.1486 23.8151 5.62963 24.1694 5.22195C24.3033 5.07818 24.4713 4.97055 24.6578 4.90903C24.778 4.87293 24.9063 4.87417 25.0258 4.91258C25.1453 4.95098 25.2503 5.02476 25.327 5.12416C25.5113 5.3402 25.6463 5.59381 25.7227 5.86736C25.9139 6.50189 26.0143 7.16038 26.0207 7.82313V7.80357ZM25.9865 9.21662C25.9865 9.24107 25.9865 9.2704 25.9865 9.31441C26.0102 9.66215 25.9517 10.0106 25.8155 10.3314C25.7458 10.5039 25.6301 10.6538 25.4811 10.7651C25.3321 10.8763 25.1555 10.9444 24.9705 10.9622H24.9265C24.438 10.9915 24.0277 10.5123 23.7981 9.85225C23.6772 9.49961 23.6001 9.13341 23.5686 8.7619C23.5244 8.38672 23.5244 8.00763 23.5686 7.63244C23.6711 6.87458 23.9838 6.27318 24.5455 6.16561C25.4492 6.02382 25.7813 6.65456 25.8986 7.39775C25.9536 7.81583 25.9732 8.23783 25.9572 8.65923C25.9572 8.87925 25.9572 9.06505 25.9572 9.19706L25.9865 9.21662ZM25.9865 14.3505C26.0549 14.771 26.3919 16.6926 25.9865 17.6998C25.7471 18.2816 25.288 18.5799 24.4722 18.2425C23.6565 17.9052 23.4953 16.5997 23.6663 15.4066C23.733 14.8489 23.8984 14.3075 24.1547 13.8078C24.4185 13.3189 24.7604 13.0842 25.1317 13.2015C25.4247 13.2944 25.7129 13.6318 25.9718 14.3163V14.3505H25.9865ZM25.1805 40.6704C26.1281 40.2743 26.602 40.509 26.8315 41.0566C27.0168 41.7615 27.0583 42.4965 26.9536 43.2178C26.8818 43.7952 26.895 44.38 26.9927 44.9535C27.0221 45.1186 26.9987 45.2887 26.9259 45.4397C26.8532 45.5907 26.7347 45.7148 26.5873 45.7945C26.3518 45.9523 26.0745 46.0357 25.7911 46.0341C25.6286 46.0292 25.4689 45.9901 25.3224 45.9194C25.176 45.8486 25.0461 45.7477 24.9412 45.6234C24.4527 45.0904 24.2182 43.961 24.6285 41.8145C24.6631 41.6173 24.7171 41.4241 24.7897 41.2375C24.8691 41.0462 24.9797 40.8694 25.117 40.7144V40.685L25.1805 40.6704ZM27.0513 51.9161C27.1009 52.8843 26.9819 53.8538 26.6996 54.7813C26.3577 55.6125 25.7471 55.9645 24.6627 55.1627C24.4185 54.9818 24.1743 52.8695 24.4527 51.2511C24.5078 50.8622 24.6094 50.4813 24.7555 50.1168C24.8646 49.817 25.0666 49.5601 25.3319 49.3833C25.5353 49.283 25.7651 49.2493 25.9887 49.2871C26.2122 49.3248 26.4183 49.4321 26.5775 49.5936C27.1002 49.9799 27.066 50.8697 27.066 51.5494C27.0513 51.7009 27.0513 51.8281 27.0513 51.9356V51.9161ZM27.0513 60.3063C27.0288 60.9242 26.9553 61.5391 26.8315 62.1448C26.7942 62.5072 26.6193 62.8414 26.3431 63.0787C26.0948 63.1855 25.8309 63.2516 25.5615 63.2742C25.3724 63.3064 25.1792 63.3064 24.99 63.2742C24.8962 63.2637 24.8062 63.2313 24.7273 63.1794C24.6483 63.1276 24.5827 63.0579 24.5357 62.976C24.5114 62.9236 24.4965 62.8673 24.4918 62.8097C24.3487 61.5588 24.3733 60.2942 24.565 59.0498C24.6245 58.7227 24.7437 58.4094 24.9167 58.1257C24.9858 57.9953 25.0846 57.8831 25.2052 57.7982C25.3257 57.7132 25.4645 57.6579 25.6104 57.6367C25.7155 57.62 25.8227 57.62 25.9279 57.6367C27.1588 57.9056 27.1051 59.1035 27.0562 60.0814L27.0513 60.3063ZM26.6215 65.3229C26.7538 66.0713 26.8371 66.8275 26.8706 67.5867C26.9099 68.1565 26.8853 68.7289 26.7973 69.2931C26.6948 69.831 26.4847 70.2221 26.1135 70.3004C26.0793 70.3031 26.045 70.3031 26.0109 70.3004C24.7702 70.3541 24.3648 69.9777 24.3062 68.7015C24.3041 67.8149 24.3465 66.9289 24.4332 66.0465V65.7727C24.4527 65.6136 24.511 65.4616 24.603 65.3303C24.695 65.199 24.8178 65.0923 24.9607 65.0198C25.089 64.9453 25.2271 64.8893 25.371 64.8535C25.5167 64.8203 25.6665 64.8088 25.8155 64.8193C25.9695 64.8243 26.12 64.8671 26.2537 64.9438C26.3874 65.0205 26.5003 65.1288 26.5824 65.2593V65.2838L26.6215 65.3229ZM26.0842 71.5667C26.4798 71.6792 26.7631 72.4175 26.8511 73.2731C26.895 73.7006 26.895 74.1315 26.8511 74.5591C26.8105 74.9537 26.6996 75.3379 26.5238 75.6934C26.4359 75.8912 26.2906 76.0581 26.1069 76.1723C25.9231 76.2865 25.7093 76.3428 25.4931 76.3339C25.2645 76.3157 25.0448 76.2368 24.8567 76.1053C24.6687 75.9738 24.5191 75.7945 24.4234 75.5858C24.2333 75.1835 24.1317 74.745 24.1254 74.2999C24.1038 73.8369 24.1449 73.3731 24.2475 72.9211C24.4136 72.2072 24.736 71.6352 25.1072 71.5423C25.2667 71.5014 25.4314 71.4849 25.5957 71.4934C25.7603 71.5008 25.9239 71.5237 26.0842 71.5618V71.5667ZM27.1588 28.4174C27.2046 29.0208 27.1041 29.6264 26.8657 30.1825C26.5922 30.6715 26.1233 30.9355 25.3515 30.6715C24.7018 30.4563 24.3452 29.7523 24.2231 28.9162C24.15 28.4136 24.15 27.903 24.2231 27.4004C24.2869 26.9321 24.4324 26.4786 24.653 26.0607C24.7398 25.8526 24.8844 25.6738 25.0697 25.5456C25.255 25.4173 25.4731 25.3449 25.6983 25.3371C27.1637 25.4104 27.1637 27.4591 27.1637 28.3979L27.1588 28.4174ZM27.0855 37.2918C26.9895 37.7882 26.742 38.2426 26.3773 38.5924C26.0109 38.8662 25.5322 38.8319 24.9119 38.2305C24.2915 37.6291 24.184 35.8934 24.5113 34.5439C24.5918 34.1816 24.7234 33.8326 24.9021 33.5073C25.0455 33.2275 25.275 33.0013 25.5566 32.8619C25.769 32.7804 26.0007 32.7638 26.2225 32.8143C26.4442 32.8648 26.646 32.9801 26.8022 33.1455C27.1153 33.5513 27.2714 34.0565 27.2418 34.5684C27.2676 35.4721 27.2186 36.3765 27.0953 37.2722L27.0855 37.2918Z" fill="#F2F8FC"/>
<path fill-rule="evenodd" clip-rule="evenodd" d="M55.2604 2.57189C55.2597 2.96066 55.1551 3.34217 54.9576 3.6769C54.8805 3.82315 54.7691 3.9485 54.633 4.04218C54.4969 4.13586 54.3401 4.19507 54.176 4.21474C54.0119 4.2143 53.8511 4.16839 53.7114 4.08209C53.5718 3.99579 53.4587 3.87247 53.3847 3.7258C53.1688 3.35093 53.0356 2.93414 52.994 2.50344C52.9908 2.46765 52.9908 2.43166 52.994 2.39587C52.956 2.00655 52.9808 1.61366 53.0672 1.23218C53.1747 0.777465 53.4043 0.391199 53.8439 0.327637H53.9465C54.1465 0.364158 54.3341 0.450482 54.492 0.578653C54.6499 0.706823 54.7731 0.872719 54.8501 1.06105C55.0712 1.45627 55.2107 1.89189 55.2604 2.34208C55.2653 2.41535 55.2653 2.48885 55.2604 2.56211M54.4594 9.87671C54.3644 9.91395 54.2608 9.92362 54.1606 9.90459C54.0603 9.88556 53.9675 9.83861 53.8927 9.76914C53.6963 9.59727 53.5411 9.38338 53.4385 9.14329C53.3026 8.85597 53.2057 8.55176 53.1503 8.23875C53.0547 7.85152 53.0621 7.44599 53.1718 7.06253C53.2815 6.67907 53.4897 6.33107 53.7755 6.05317C53.8512 5.96525 53.9556 5.90714 54.0702 5.88922C54.1847 5.87131 54.3019 5.89476 54.4007 5.95538C54.6022 6.09864 54.75 6.30514 54.8208 6.54211C54.9248 6.83273 54.9937 7.13476 55.026 7.44177C55.1481 8.44899 54.982 9.6469 54.4594 9.87671ZM55.2214 8.71791C55.1663 8.72536 55.1104 8.72536 55.0553 8.71791C54.9303 8.70736 54.8093 8.66896 54.7011 8.6055C54.593 8.54205 54.5003 8.45516 54.43 8.3512C54.2413 8.1009 54.0975 7.81964 54.0051 7.52C53.8902 7.14931 53.8293 6.76396 53.8243 6.37587C53.8349 5.88573 53.9411 5.40238 54.137 4.95304C54.1961 4.78353 54.2955 4.63091 54.4265 4.50828C54.5575 4.38565 54.7163 4.29667 54.8892 4.24897C55.1628 4.19518 55.3777 4.39076 55.5633 4.73791C55.6959 5.02267 55.7912 5.32343 55.8466 5.63268C55.9169 5.99033 55.9545 6.35365 55.959 6.71813C55.1969 14.9715 54.9625 15.8467 54.4203 16.0227L55.2214 8.71791ZM55.0602 14.3848C54.4838 14.3848 54.1663 14.0327 54.0197 13.49C53.9515 13.2035 53.922 12.9091 53.9318 12.6148C53.9425 12.3041 53.9801 11.9949 54.0442 11.6907C54.2151 10.8448 54.5912 10.131 54.9674 10.1358C55.4558 10.1358 55.871 10.7666 56.0566 11.5391C56.1321 11.8366 56.1731 12.1417 56.1788 12.4486C56.1912 12.7457 56.165 13.0432 56.1006 13.3335C55.1579 21.2349 54.8306 21.67 54.2591 21.6896L55.0602 14.3848ZM55.1969 26.2221C55.2007 26.7057 55.1112 27.1855 54.9332 27.6351C54.8738 27.7964 54.773 27.9392 54.6409 28.0491C54.5089 28.159 54.3502 28.2321 54.1809 28.261H54.0051C53.8325 28.2562 53.6643 28.2057 53.5176 28.1146C53.3709 28.0236 53.2509 27.8953 53.1698 27.7427C53.0119 27.4501 52.9201 27.1262 52.9011 26.7942C52.8894 26.5824 52.8894 26.3702 52.9011 26.1585C52.9161 25.6159 53.0303 25.0806 53.2382 24.5792C53.4238 24.1783 53.6925 23.9094 54.0442 23.9143C54.5717 23.9143 54.8648 24.3201 55.0211 24.8042C55.142 25.2319 55.1996 25.675 55.1921 26.1194V26.2123L55.1969 26.2221ZM54.1663 35.0231C53.9145 35.0163 53.6735 34.9191 53.4873 34.7493C53.3081 34.582 53.1983 34.3533 53.1796 34.1088C53.1377 33.268 53.1721 32.4252 53.2821 31.5907C53.3131 31.3603 53.3877 31.1379 53.502 30.9355C53.5258 30.8855 53.5603 30.8414 53.6031 30.8063C53.6459 30.7712 53.6959 30.746 53.7495 30.7324C53.8032 30.7189 53.8591 30.7174 53.9135 30.7279C53.9678 30.7385 54.0191 30.761 54.0637 30.7937C54.3038 30.9763 54.4937 31.2169 54.6157 31.4929C54.9118 32.1787 55.0679 32.9168 55.0748 33.6638C55.077 33.914 55.0407 34.163 54.9674 34.4021C54.9012 34.6218 54.757 34.8097 54.5619 34.9302C54.4381 34.9937 54.3005 35.0256 54.1614 35.0231H54.1663ZM53.9074 42.1323H53.8781C53.5068 42.1323 53.2626 41.7901 53.1063 41.3402C52.9838 40.9473 52.9036 40.5425 52.867 40.1325C52.867 40.0348 52.867 39.9516 52.867 39.8881C52.8377 39.4554 52.9097 39.0218 53.077 38.6217C53.142 38.4576 53.2449 38.3114 53.3774 38.1949C53.5099 38.0785 53.6681 37.9952 53.839 37.9519C53.9487 37.939 54.0598 37.9591 54.1581 38.0096C54.2564 38.0601 54.3375 38.1387 54.391 38.2354C54.5619 38.5197 54.6733 38.8358 54.7182 39.1644C54.7182 39.2329 54.7182 39.3013 54.7524 39.36C54.7866 39.4187 54.7817 39.5654 54.7915 39.7023C54.8447 40.1741 54.8349 40.651 54.7622 41.1202C54.6596 41.6385 54.43 42.059 53.9562 42.1274H53.9074V42.1323ZM55.0455 46.9386C55.0161 47.484 54.8973 48.0209 54.6938 48.5277C54.518 48.9384 54.2689 49.2318 53.9513 49.2807C53.4043 49.3638 53.0916 48.8993 52.9109 48.3419C52.7839 47.9138 52.7068 47.4725 52.6813 47.0266C52.6716 46.854 52.6716 46.681 52.6813 46.5084C52.6719 46.0976 52.7364 45.6885 52.8718 45.3007C52.918 45.1335 53.0128 44.9838 53.1441 44.8706C53.2754 44.7575 53.4374 44.6859 53.6094 44.6651H53.7315C53.9622 44.691 54.1813 44.7801 54.3648 44.9223C54.5483 45.0646 54.6892 45.2547 54.772 45.4718C54.9563 45.884 55.0512 46.3306 55.0504 46.7822C55.0504 46.8604 55.0455 46.9093 55.0455 46.9386ZM55.1139 53.2949C55.153 54.5319 55.0016 55.2507 54.7817 55.5587C54.7332 55.6426 54.6609 55.7102 54.5739 55.7529C54.4869 55.7955 54.3893 55.8113 54.2933 55.7983C54.1101 55.7559 53.9496 55.6459 53.8439 55.4903C53.383 54.7711 53.1513 53.9288 53.1796 53.0749C53.159 52.5449 53.2233 52.015 53.3701 51.5054C53.5068 51.1142 53.7218 50.8355 54.049 50.7768C54.6938 50.6595 54.9625 51.0947 55.0699 51.6716C55.1277 52.0862 55.1425 52.5057 55.1139 52.9233C55.1139 53.0798 55.109 53.2118 55.1139 53.2949ZM55.4656 60.5313C55.5188 61.0227 55.4824 61.5197 55.3581 61.9981C55.3239 62.1668 55.2458 62.3234 55.1317 62.4522C55.0177 62.5809 54.8717 62.6773 54.7085 62.7315C54.5966 62.7524 54.4814 62.7469 54.3721 62.7155C54.2627 62.6841 54.1621 62.6277 54.0784 62.5506C53.8931 62.3844 53.7621 62.1664 53.7022 61.9248V61.8808C53.508 61.0093 53.4716 60.1101 53.5948 59.2258C53.6402 58.887 53.7374 58.5572 53.883 58.2479C54.0295 57.9643 54.2151 57.803 54.4203 57.7932C54.475 57.7813 54.5316 57.7813 54.5864 57.7932C54.855 57.891 55.0455 58.2479 55.1774 58.6831C55.3366 59.2909 55.4332 59.9135 55.4656 60.5411V60.5313ZM55.4656 67.176C55.5267 67.6983 55.5152 68.2265 55.4314 68.7455C55.4018 68.9091 55.3404 69.0652 55.2507 69.2051C55.2088 69.2733 55.1518 69.3309 55.084 69.3733C55.0162 69.4157 54.9395 69.4418 54.8599 69.4496C54.8017 69.4593 54.7423 69.4593 54.6841 69.4496C54.4963 69.4007 54.3224 69.3091 54.1758 69.1819C54.0292 69.0547 53.914 68.8953 53.839 68.7162C53.6147 68.228 53.4822 67.7025 53.4482 67.1662C53.3807 66.4662 53.4119 65.76 53.541 65.0687C53.5712 64.9007 53.6204 64.7366 53.6876 64.5797C53.7114 64.5113 53.7528 64.4503 53.8077 64.4031C53.8626 64.3559 53.929 64.324 54.0002 64.3108C54.0258 64.3037 54.0528 64.3037 54.0784 64.3108C55.2311 64.5553 55.3728 66.1199 55.4558 67.0685L55.4656 67.176ZM54.855 76.2899C54.7586 76.2949 54.6621 76.2799 54.5717 76.2459C54.2157 76.0713 53.9359 75.7721 53.7853 75.4049C53.5551 74.922 53.4207 74.3989 53.3896 73.8648C53.3381 73.2011 53.4297 72.5341 53.6583 71.909C53.743 71.6617 53.8815 71.4363 54.0637 71.2489C54.14 71.1661 54.2319 71.0992 54.3342 71.0522C54.4365 71.0052 54.5471 70.979 54.6596 70.9751C54.9332 70.9751 55.1481 71.2587 55.3142 71.6596C55.5115 72.1936 55.6491 72.7479 55.7245 73.3123C55.7489 73.4541 55.7733 73.6447 55.788 73.8599C55.8323 74.3497 55.8093 74.8432 55.7196 75.3267C55.6121 75.8157 55.3777 76.2361 54.9234 76.3046H54.855V76.2899Z" fill="#F2F8FC"/>
</g>
<defs>
<clipPath id="clip0_119_54">
<rect width="79" height="111" fill="white"/>
</clipPath>
</defs>
</svg>
