<svg width="162" height="48" viewBox="0 0 162 48" fill="none" xmlns="http://www.w3.org/2000/svg"><g opacity=".1" stroke-width="7"><path d="M3 15.775S13.077 4 29.72 4c16.644 0 14.382 15.851 31.023 15.851C78.293 19.851 78.405 4 97.54 4c20.162 0 22.644 15.851 42.571 15.851 12.274 0 17.889-9.624 17.889-9.624" stroke="url(#paint0_linear_7_2)"/><path d="M3 28.003s10.077-11.775 26.72-11.775c16.644 0 14.382 15.85 31.023 15.85 17.55 0 17.662-15.85 36.797-15.85 20.162 0 22.644 15.85 42.571 15.85 12.274 0 17.889-9.623 17.889-9.623" stroke="url(#paint1_linear_7_2)"/><path d="M3 40.23s10.077-11.774 26.72-11.774c16.644 0 14.382 15.85 31.023 15.85 17.55 0 17.662-15.85 36.797-15.85 20.162 0 22.644 15.85 42.571 15.85 12.274 0 17.889-9.623 17.889-9.623" stroke="url(#paint2_linear_7_2)"/></g><defs><linearGradient id="paint0_linear_7_2" x1="3" y1="18.128" x2="62.079" y2="-64.546" gradientUnits="userSpaceOnUse"><stop stop-color="#467BCB"/><stop offset="1" stop-color="#12B9DD"/></linearGradient><linearGradient id="paint1_linear_7_2" x1="3" y1="30.356" x2="62.079" y2="-52.318" gradientUnits="userSpaceOnUse"><stop stop-color="#467BCB"/><stop offset="1" stop-color="#12B9DD"/></linearGradient><linearGradient id="paint2_linear_7_2" x1="3" y1="42.584" x2="62.079" y2="-40.09" gradientUnits="userSpaceOnUse"><stop stop-color="#467BCB"/><stop offset="1" stop-color="#12B9DD"/></linearGradient></defs></svg>