<svg width="158" height="44" viewBox="0 0 158 44" fill="none" xmlns="http://www.w3.org/2000/svg"><path d="M2 13.68S11.995 2 28.503 2C45.012 2 42.77 17.722 59.274 17.722 76.681 17.722 76.794 2 95.772 2c19.999 0 22.461 15.722 42.226 15.722 12.174 0 17.744-9.545 17.744-9.545" stroke="#E0E0E0" stroke-width="4"/><path d="M2 25.808s9.995-11.68 26.503-11.68c16.509 0 14.266 15.723 30.771 15.723 17.407 0 17.52-15.722 36.498-15.722 19.999 0 22.461 15.722 42.226 15.722 12.174 0 17.744-9.546 17.744-9.546" stroke="#E0E0E0" stroke-width="4"/><path d="M2 37.937s9.995-11.68 26.503-11.68c16.509 0 14.266 15.723 30.771 15.723 17.407 0 17.52-15.723 36.498-15.723 19.999 0 22.461 15.723 42.226 15.723 12.174 0 17.744-9.546 17.744-9.546" stroke="#E0E0E0" stroke-width="4"/></svg>