<svg width="299" height="84" viewBox="0 0 299 84" fill="none" xmlns="http://www.w3.org/2000/svg"><g opacity=".2" stroke-width="7"><path d="M3 26.202S22 4 53.382 4C84.764 4 80.5 33.888 111.876 33.888 144.966 33.888 145.18 4 181.258 4c38.018 0 42.697 29.888 80.27 29.888 23.142 0 33.73-18.146 33.73-18.146" stroke="url(#paint0_linear_107_40)"/><path d="M3 49.258s19-22.202 50.382-22.202c31.382 0 27.118 29.888 58.494 29.888 33.09 0 33.304-29.888 69.382-29.888 38.018 0 42.697 29.888 80.27 29.888 23.142 0 33.73-18.146 33.73-18.146" stroke="url(#paint1_linear_107_40)"/><path d="M3 72.315s19-22.203 50.382-22.203C84.764 50.112 80.5 80 111.876 80c33.09 0 33.304-29.888 69.382-29.888 38.018 0 42.697 29.888 80.27 29.888 23.142 0 33.73-18.146 33.73-18.146" stroke="url(#paint2_linear_107_40)"/></g><defs><linearGradient id="paint0_linear_107_40" x1="3" y1="30.639" x2="114.396" y2="-125.245" gradientUnits="userSpaceOnUse"><stop stop-color="#467BCB"/><stop offset="1" stop-color="#12B9DD"/></linearGradient><linearGradient id="paint1_linear_107_40" x1="3" y1="53.695" x2="114.396" y2="-102.189" gradientUnits="userSpaceOnUse"><stop stop-color="#467BCB"/><stop offset="1" stop-color="#12B9DD"/></linearGradient><linearGradient id="paint2_linear_107_40" x1="3" y1="76.751" x2="114.396" y2="-79.133" gradientUnits="userSpaceOnUse"><stop stop-color="#467BCB"/><stop offset="1" stop-color="#12B9DD"/></linearGradient></defs></svg>