<svg width="79" height="111" viewBox="0 0 79 111" fill="none" xmlns="http://www.w3.org/2000/svg"><g clip-path="url(#clip0_119_54)"><path d="M67.042 93.452l-.117.391-.083.42-.088.411-.078.289-.073.298-.069.293-.068.294-.064.293-.053.293-.054.299-.044.298-.044.293-.034.303-.034.294-.025.303-.024.298-.015.298-.01.304-.01.298v.303l.005.303.005.298.015.308.034.348.059.381.088.421.102.449.132.48.152.498.166.519.185.518.196.533.21.528.22.528.224.518.235.499.234.484.244.455.24.425.24.391.229.352.234.308.22.259.2.264.18.274.25.23.332.254.293.225.122.093.098.054.078.024h.064l.049-.024.039-.044.039-.064.03-.068.023-.083.03-.083.024-.088.04-.084 2.852-5.397.112-.26.093-.298.083-.313.069-.303.063-.288.147-.577.151-.568.142-.572.107-.586.044-.323.03-.342.019-.367.015-.376v-.392l-.01-.4-.015-.416-.02-.416-.034-.425-.039-.425-.044-.426-.053-.42-.059-.416-.063-.406-.069-.4-.073-.387-.078-.372-.088-.352-.088-.337-.083-.308-.073-.215-.074-.215-.083-.21-.083-.216-.088-.205-.093-.205-.097-.206-.098-.2-.103-.206-.102-.2-.103-.2-.112-.201-.103-.2-.107-.201-.112-.2-.103-.196-.107-.2-.103-.2-.103-.201-.102-.2-.059-.118-.068-.147-.078-.166-.088-.19-.103-.206-.107-.225-.118-.235-.117-.24-.122-.244-.127-.244-.127-.245-.127-.234-.127-.23-.127-.215-.122-.196-.117-.18-.108-.157-.102-.132-.093-.098-.088-.064-.186-.088h-.146l-.137.088-.098.147-3.043 7.608z" stroke="#F2F8FC" stroke-width=".22" stroke-miterlimit="22.93"/><path fill-rule="evenodd" clip-rule="evenodd" d="M8.099 94.112l-.176.274-.151.23-.123.185-.102.137-.073.103-.059.064-.044.029-.03-.01-.014-.03-.005-.063v-.083l.337-10.121v-.22l-.054-.088-.122-.02-2.315.02-.21.01-.112.039-.054.073-.015.132-.127 2.719v.552l-.005 2.073-.044 17.935.005.132.02.097.044.064.078.044.117.029.166.02 2.062.225.234.01.274-.035.23-.078.14-.122.079-.176.034-.254-.01-.274-.034-.264-.044-.274-.044-.264-.024-.254-.215-6.107.005-.318.02-.313.029-.318.01-.317-.035-.323-.01-.162.054-.078.088.034.186.152.405.357.41.352.396.362 7.146 7.256.103.078.117-.02.19-.127 1.989-1.423.122-.102.01-.074-.093-.088-7.66-5.754-.605-.465-.313-.24-1.905-1.403-.136-.117-.03-.093.044-.117.914-1.487.19-.225.205-.21.108-.196.093-.195 5.866-7.27.078-.118-.029-.083-.137-.103-2.017-1.183-.034-.02-.04-.014-.034-.005-.039.005-.039.014-.044.025-.049.039-.058.054-.059.068-.063.083-.083.103-.079.122-.102.142-.108.161-.122.181-.136.21-.152.235-4.18 6.469z" fill="#F2F8FC"/><path d="M8.099 94.112l-.176.274-.151.23-.123.185-.102.137-.073.103-.059.064-.044.029-.03-.01-.014-.03-.005-.063v-.083l.337-10.121v-.22l-.054-.088-.122-.02-2.315.02-.21.01-.112.039-.054.073-.015.132-.127 2.719v.552l-.005 2.073-.044 17.935.005.132.02.097.044.064.078.044.117.029.166.02 2.062.225.234.01.274-.035.23-.078.14-.122.079-.176.034-.254-.01-.274-.034-.264-.044-.274-.044-.264-.024-.254-.215-6.107.005-.318.02-.313.029-.318.01-.317-.035-.323-.01-.162.054-.078.088.034.186.152.405.357.41.352.396.362 7.146 7.256.103.078.117-.02.19-.127 1.989-1.423.122-.102.01-.074-.093-.088-7.66-5.754-.605-.465-.313-.24-1.905-1.403-.136-.117-.03-.093.044-.117.914-1.487.19-.225.205-.21.108-.196.093-.195 5.866-7.27.078-.118-.029-.083-.137-.103-2.017-1.183-.034-.02-.04-.014-.034-.005-.039.005-.039.014-.044.025-.049.039-.058.054-.059.068-.063.083-.083.103-.079.122-.102.142-.108.161-.122.181-.136.21-.152.235-4.18 6.469z" stroke="#F2F8FC" stroke-width=".22" stroke-miterlimit="22.93"/><path fill-rule="evenodd" clip-rule="evenodd" d="M60.673 99.882l-.015.048-.044.03h-.049l-.039-.04-2.618-4.864-.186-.347-.195-.348-.19-.347-.191-.352-.186-.362-.18-.361-.176-.372-.161-.372-.171-.25-.181-.239-.103-.313-.102-.313-.171-.312-.181-.318-.18-.318-.186-.313-.181-.318-.18-.318-.177-.322-.166-.323-.161-.328-.142-.337-.058-.132-.064-.132-.068-.137-.073-.132-.074-.127-.083-.132-.078-.132-.078-.137-.078-.132-.083-.132-.074-.127-.073-.137-.073-.137-.063-.137-.06-.137-.053-.142-.049-.136-.039-.147-.024-.142-.025-.147-.053-.19-.113-.064-.112.064-.054.18-.034.465-.005.465.015.46.02.464.014.464v.362l.005.367-.005.362-.005.371-.005.367-.014.367-.015.366-.01.372-.02.367-.014.366-.024.362-.02.367-.024.367-.025.356-.024.426-.03.415-.02.42-.019.421-.014.42-.015.426-.015.416-.01.42-.01.426-.004.415-.005.426-.005.415v1.266l.005.421v.42l.005.421.005.421.01.425.005.401-.005.406-.005.401v.406l-.01.401-.005.405-.005.406v.401l.005.406.005.401.01.401.02.406.024.405.122 1.59.03.19.053.083.122.015 1.88-.024.088.024.098.034.127-.019-.01-.103-.063-.132-.083-.205-.03-.206.005-.205.02-.201.024-.205.01-.21-.122-9.52-.01-.743.02-.289.161-.987.059-.123.127-.063.141.01.103.088 1.016 1.72.137.226.151.234 7.376 11.422.161.254.103.181.62.929.069.069.097-.005.078-.054.02-.098-1.803-15.597-.073-.684-.054-.695-.053-.694-.044-.694-.054-.695-.063-.694-.044-.406-.05-.406-.053-.41-.054-.406-.053-.41-.05-.407-.038-.41-.025-.406-.014-.411-.025-.166-.068-.127-.132-.108-.24-.078-.386-.074-.449-.063-.42-.054-.303-.039-.151-.02-.093.015-.059.044-.029.098-.01.147-.01.308-.004.303.59 13.192z" fill="#F2F8FC"/><path d="M60.673 99.882l-.015.048-.044.03h-.049l-.039-.04-2.618-4.864-.186-.347-.195-.348-.19-.347-.191-.352-.186-.362-.18-.361-.176-.372-.161-.372-.171-.25-.181-.239-.103-.313-.102-.313-.171-.312-.181-.318-.18-.318-.186-.313-.181-.318-.18-.318-.177-.322-.166-.323-.161-.328-.142-.337-.058-.132-.064-.132-.068-.137-.073-.132-.074-.127-.083-.132-.078-.132-.078-.137-.078-.132-.083-.132-.074-.127-.073-.137-.073-.137-.063-.137-.06-.137-.053-.142-.049-.136-.039-.147-.024-.142-.025-.147-.053-.19-.113-.064-.112.064-.054.18-.034.465-.005.465.015.46.02.464.014.464v.362l.005.367-.005.362-.005.371-.005.367-.014.367-.015.366-.01.372-.02.367-.014.366-.024.362-.02.367-.024.367-.025.356-.024.426-.03.415-.02.42-.019.421-.014.42-.015.426-.015.416-.01.42-.01.426-.004.415-.005.426-.005.415v1.266l.005.421v.42l.005.421.005.421.01.425.005.401-.005.406-.005.401v.406l-.01.401-.005.405-.005.406v.401l.005.406.005.401.01.401.02.406.024.405.122 1.59.03.19.053.083.122.015 1.88-.024.088.024.098.034.127-.019-.01-.103-.063-.132-.083-.205-.03-.206.005-.205.02-.201.024-.205.01-.21-.122-9.52-.01-.743.02-.289.161-.987.059-.123.127-.063.141.01.103.088 1.016 1.72.137.226.151.234 7.376 11.422.161.254.103.181.62.929.069.069.097-.005.078-.054.02-.098-1.803-15.597-.073-.684-.054-.695-.053-.694-.044-.694-.054-.695-.063-.694-.044-.406-.05-.406-.053-.41-.054-.406-.053-.41-.05-.407-.038-.41-.025-.406-.014-.411-.025-.166-.068-.127-.132-.108-.24-.078-.386-.074-.449-.063-.42-.054-.303-.039-.151-.02-.093.015-.059.044-.029.098-.01.147-.01.308-.004.303.59 13.192zM33.187 85.174l-.064-.098-.117-.03-.113.035-.053.103-1.378 6.307-.049.23-.087.445-3.215 16.013-.02.137.035.083.103.044.185.029 2.316.25.175.009.098-.019.049-.078.03-.132.903-8.029.03-.191.048-.102.083-.049.147-.005 1.944.054.117.009.093.04.078.044.063.068.044.078.035.088.029.093.02.108.014.102.01.103.005.103.005.093.01.093.019.078 1.514 6.742.049.211.044.156.044.108.044.073.063.039.069.01.088-.005.977-.117.474-.044.59-.049.577-.069.44-.083.127-.049.058-.068.025-.132v-.162l-.035-.19-.048-.215-.074-.23-.088-.245-.097-.239-.103-.245-.093-.234-.093-.216-.078-.195-.063-.171-.157-.455-.146-.46-.142-.459-.136-.46-.132-.459-.132-.465-.122-.464-.127-.465-.103-.308-.137-.303-.141-.303-.113-.308-4.415-15.578z" stroke="#F2F8FC" stroke-width=".22" stroke-miterlimit="22.93"/><path fill-rule="evenodd" clip-rule="evenodd" d="M22.48 86.797l-.015-.161-.03-.093-.053-.044-.083-.005-1.71.034-.166.005-.117.02-.074.034-.049.064-.02.088-.009.122-.02.733-.019.611-.02.617-.019.61-.024.622-.03.61-.024.617-.03.616-.029.616-.034.616-.03.616-.029.616-.034.616-.03.616-.033.617-.03.616-.029.616-.03.616-.029.616-.024.616-.024.611-.235 6.097v.191l.015.122.039.073.063.039.113.015 7.654.606.161.005.093-.019.044-.054-.005-.108-.034-.171-.059-.244-.044-.254-.029-.255-.02-.249-.01-.254v-.514l.006-.254.005-.254v-.259l-.005-.259-.01-.26-.015-.288.005-.274.04-.288.072-.181.054-.181.044-1.594-.01-.122-.068-.035-.161.035-4.67 1.344-.132-.01-.02-.102.006-.137-.01-.611-.03-.611-.02-.607.07-12.932v-.25z" fill="#F2F8FC"/><path d="M22.48 86.797l-.015-.161-.03-.093-.053-.044-.083-.005-1.71.034-.166.005-.117.02-.074.034-.049.064-.02.088-.009.122-.02.733-.019.611-.02.617-.019.61-.024.622-.03.61-.024.617-.03.616-.029.616-.034.616-.03.616-.029.616-.034.616-.03.616-.033.617-.03.616-.029.616-.03.616-.029.616-.024.616-.024.611-.235 6.097v.191l.015.122.039.073.063.039.113.015 7.654.606.161.005.093-.019.044-.054-.005-.108-.034-.171-.059-.244-.044-.254-.029-.255-.02-.249-.01-.254v-.514l.006-.254.005-.254v-.259l-.005-.259-.01-.26-.015-.288.005-.274.04-.288.072-.181.054-.181.044-1.594-.01-.122-.068-.035-.161.035-4.67 1.344-.132-.01-.02-.102.006-.137-.01-.611-.03-.611-.02-.607.07-12.932v-.25z" stroke="#F2F8FC" stroke-width=".22" stroke-miterlimit="22.93"/><path fill-rule="evenodd" clip-rule="evenodd" d="M70.359 89.73l.064-.121.122-.05.127.025.083.103 1.216 3.046.102.303.084.318.073.328.058.332.05.318.073.288.102.28.083.292.073.387.084.484.058.479.03.367-.01.308-.01.317-.01.318-.015.328-.01.332-.019.328-.024.337-.025.338-.024.337-.034.333-.044.337-.044.337-.05.328-.058.327-.068.323-.073.318-.083.308-.093.308-.098.298-.107.289-1.339 3.281-.088.112-.136.039-.137-.044-.083-.117-.582-1.623-.092-.294-.083-.342-.074-.377-.073-.415-.054-.44-.053-.47-.04-.489-.039-.498-.024-.519-.024-.518-.01-.518-.005-.514.005-.513.01-.489.014-.479.025-.45.029-.425.034-.396.04-.352.053-.308 1.143-6.47z" fill="#F2F8FC"/><path fill-rule="evenodd" clip-rule="evenodd" d="M67.042 93.452l-.117.39-.083.421-.088.411-.078.289-.073.298-.069.293-.068.294-.064.293-.053.293-.054.299-.044.298-.044.293-.034.303-.034.294-.025.303-.024.298-.015.298-.01.304-.01.298v.303l.005.303.005.298.015.308.034.348.059.381.088.42.102.45.132.479.152.499.166.518.185.519.196.533.21.528.22.528.224.518.235.499.234.484.244.455.24.425.24.391.229.352.234.308.22.259.2.264.18.274.25.23.332.254.293.225.122.093.098.054.078.024h.064l.049-.024.039-.044.039-.064.03-.068.023-.083.03-.084.024-.088.04-.083 2.852-5.398.112-.259.093-.298.083-.313.069-.303.063-.289.147-.576.151-.568.142-.572.107-.586.044-.323.03-.342.019-.367.015-.377v-.39l-.01-.402-.015-.415-.02-.416-.034-.425-.039-.426-.044-.425-.053-.42-.059-.416-.063-.406-.069-.4-.073-.387-.078-.372-.088-.352-.088-.337-.083-.308-.073-.215-.074-.216-.083-.21-.083-.215-.088-.205-.093-.206-.097-.205-.098-.2-.103-.206-.102-.2-.103-.2-.112-.201-.103-.2-.107-.201-.112-.2-.103-.196-.107-.2-.103-.201-.103-.2-.102-.201-.059-.117-.068-.147-.078-.166-.088-.191-.103-.205-.107-.225-.118-.235-.117-.24-.122-.244-.127-.244-.127-.245-.127-.235-.127-.23-.127-.215-.122-.195-.117-.181-.108-.157-.102-.131-.093-.098-.088-.064-.186-.088h-.146l-.137.088-.098.147-3.043 7.608z" fill="#F2F8FC"/><path d="M70.359 89.731l.064-.122.122-.05.127.025.083.103 1.216 3.046.103.303.083.318.073.328.058.332.05.318.073.289.102.278.083.294.073.386.084.484.058.48.03.366-.01.308-.01.318-.01.317-.015.328-.01.332-.019.328-.024.337-.025.338-.024.337-.034.333-.044.337-.044.337-.049.328-.059.328-.068.322-.073.318-.083.308-.093.308-.098.298-.107.289-1.339 3.281-.088.112-.136.039-.137-.044-.083-.117-.582-1.623-.092-.294-.083-.342-.074-.376-.073-.416-.054-.44-.053-.469-.04-.489-.038-.499-.025-.518-.024-.519-.01-.518-.005-.513.005-.514.01-.489.014-.479.025-.45.029-.425.034-.396.04-.352.053-.308 1.143-6.469z" fill="#F2F8FC"/><path fill-rule="evenodd" clip-rule="evenodd" d="M43.537 104.732h-.112l-.098-.069-.034-.107.298-15.612v-.279l-.03-.327v-.176l.084-.093h.127l.146.097.244.216.23.224.151.24.127.23.19.215.104.083.102.108.103.122.102.132.103.142.097.151.098.157.098.166.098.166.087.162.084.166.083.161.073.157.073.146.059.137.058.127.264.636.22.636.176.626.137.625.092.621.054.616v1.217l-.059.602-.092.602-.122.591-.162.592-.195.582-.22.586-.254.577-.283.572-.308.573-.332.562-.366.562-.381.557-.826 1.15-.088.073zM42.36 84.304l-.117-.05-.127.025-.098.083-.044.123-.39 7.085v4.825l-.06.308-.058.308-.044.304v6.781l-.054.308-.044.308v.294l.171 3.637.04.118.097.078h.122l.113-.059 2.374-2.19.532-.489.518-.489.488-.538.489-.562.459-.582.44-.601.41-.651.38-.63.348-.646.317-.665.283-.675.24-.684.205-.694.166-.71.117-.718.073-.719v-1.462l-.078-.738-.136-.738-.059-.245-.059-.25-.063-.239-.064-.24-.078-.239-.073-.24-.078-.23-.083-.234-.088-.235-.098-.23-.098-.224-.102-.225-.108-.225-.117-.22-.117-.215-.132-.21-.132-.216-.142-.21-.141-.2-.156-.201-.118-.156-.117-.162-.132-.176-.132-.18-.132-.187-.136-.19-.142-.186-.142-.19-.146-.187-.147-.176-.151-.17-.147-.167-.151-.147-.152-.136-.131-.118-3.068-2.24z" fill="#F2F8FC"/><path d="M43.537 104.732h-.112l-.098-.069-.034-.107.298-15.612v-.279l-.03-.327v-.176l.084-.093h.127l.146.097.244.216.23.224.151.24.127.23.19.215.104.083.102.108.103.122.102.132.103.142.097.151.098.157.098.166.098.166.087.162.084.166.083.161.073.157.073.146.059.137.058.127.264.636.22.636.176.626.137.625.092.621.054.616v1.217l-.059.602-.092.602-.122.591-.162.592-.195.582-.22.586-.254.577-.283.572-.308.573-.332.562-.366.562-.381.557-.826 1.15-.088.073zM42.36 84.304l-.117-.05-.127.025-.098.083-.044.123-.39 7.085v4.825l-.06.308-.058.308-.044.304v6.781l-.054.308-.044.308v.294l.171 3.637.04.118.097.078h.122l.113-.059 2.374-2.19.532-.489.518-.489.488-.538.489-.562.459-.582.44-.601.41-.651.38-.63.348-.646.317-.665.283-.675.24-.684.205-.694.166-.71.117-.718.073-.719v-1.462l-.078-.738-.136-.738-.059-.245-.059-.25-.063-.239-.064-.24-.078-.239-.073-.24-.078-.23-.083-.234-.088-.235-.098-.23-.098-.224-.102-.225-.108-.225-.117-.22-.117-.215-.132-.21-.132-.216-.142-.21-.141-.2-.156-.201-.118-.156-.117-.162-.132-.176-.132-.18-.132-.187-.136-.19-.142-.186-.142-.19-.146-.187-.147-.176-.151-.17-.147-.167-.151-.147-.152-.136-.131-.118-3.068-2.24z" stroke="#F2F8FC" stroke-width=".22" stroke-miterlimit="22.93"/><path fill-rule="evenodd" clip-rule="evenodd" d="M33.123 85.076l.064.098 4.415 15.578.113.308.141.303.137.303.103.308.127.465.122.464.132.465.132.459.136.46.142.459.147.46.156.455.063.171.078.195.093.216.093.234.103.245.097.239.088.245.074.23.048.215.035.19v.162l-.025.132-.058.068-.127.049-.44.083-.576.069-.591.049-.474.044-.977.117-.088.005-.069-.01-.063-.039-.044-.073-.044-.108-.044-.156-.049-.211-1.514-6.742-.02-.078-.01-.093-.004-.093-.005-.103-.01-.103-.014-.102-.02-.108-.03-.093-.033-.088-.044-.078-.064-.068-.078-.044-.093-.04-.117-.009-1.944-.054-.147.005-.083.049-.049.102-.029.191-.904 8.029-.029.132-.049.078-.098.019-.175-.009-2.316-.25-.185-.029-.103-.044-.034-.083.02-.137 3.214-16.013.087-.445.05-.23 1.377-6.307.053-.103.113-.034.117.03zm0 6.386l-.049.137-.728 6.322-.058.235-.054.249-.005.161.025.098.068.04.127.014.308.068.298.074 1.191.029.118-.005.044-.049-.01-.122-.997-6.126.01-.123.015-.132-.054-.303-.039-.308-.024-.225-.088-.078-.098.044z" fill="#F2F8FC"/><path d="M33.074 91.599l.049-.137.098-.044.088.078.024.225.04.308.053.303-.015.132-.01.122.997 6.127.01.122-.044.049-.117.005-1.192-.03-.298-.073-.308-.068-.127-.015-.069-.039-.024-.098.005-.161.054-.25.058-.234.728-6.322z" stroke="#F2F8FC" stroke-width=".22" stroke-miterlimit="22.93"/><path fill-rule="evenodd" clip-rule="evenodd" d="M42.218 70.965c-.532-2.2-2.999-1.843-1.954-4.6.616-1.595 2.8-2.905 1.857-3.472-.587-.357-.181-.21-.318-.528-.65.21-.371.063-.977-.103-.195.127-2.325 3.208-2.506 4.64-.415 3.398 4.182.714 2.252 6.845a28.26 28.26 0 01-1.587 3.604c-.254.758.62 0 1.563-.558.234-.141 1.543-3.823 1.607-4.346.065-.491.086-.987.063-1.482z" fill="#F2F8FC"/><path d="M42.218 70.965c-.532-2.2-2.999-1.843-1.954-4.6.616-1.595 2.8-2.905 1.857-3.472-.587-.357-.181-.21-.318-.528-.65.21-.371.063-.977-.103-.195.127-2.325 3.208-2.506 4.64-.415 3.398 4.182.714 2.252 6.845a28.26 28.26 0 01-1.587 3.604c-.254.758.62 0 1.563-.558.234-.141 1.543-3.823 1.607-4.346.065-.491.086-.987.063-1.482v0z" stroke="#F2F8FC" stroke-width=".22" stroke-miterlimit="22.93"/><path fill-rule="evenodd" clip-rule="evenodd" d="M17.873 21.768c-.137 1.423-.733 7.334-3.317 6.542-1.758-.558-1.92-.293-1.538-2.269.22-1.134 1.763-1.408 2.833-4.6 1.201-3.58-3.332-3.937-4.201-1.311-1.304 3.911.572 4.571-1.954 7.148-.454.46-2.809 1.037-3.81-.489a4.554 4.554 0 01-.772-1.594c-.19-.89.186-12.893.044-13.358-1.646.49-5.217-.24-5.1.49.386 2.346.49 1.26.69 4.317.141 2.16.42 3.139.488 5.627A36.865 36.865 0 002.393 29.2c.367 1.5.592 3.53 2.384 4.86.547.406 3.014.948 3.107 1.379.542 2.493 1.104 7.994.845 11.167-.073.895.103 2.66.083 3.74-.02 1.081-.083 3.912-.689 4.963-1.177 2.078-4.552.978-5.74 2.978-1.567 2.626-.947 7.608-.918 10.654 0 .773-.131 7.49.093 7.642.225.152 4.133-.068 4.167-.415.141-1.467-.581-1.898-.713-4.587a57.438 57.438 0 01-.059-7.671 5.67 5.67 0 01.137-1.218c.44-1.574.122-1.858 1.7-2.89 2.29-.943 3.522-.894 5.563-.361 4.187 1.095 3.542 3.422 4.206 8.542.332 2.576.332 5.119.488 7.71.03.597 1.989.152 3.561.303.43.04 1.569.157 1.598-.41.137-2.684-.137-3.13-.176-5.315 0-.733-.826-8.688-.943-9.143-.488-1.853-.625-2.445-2.242-3.638-2.51-1.878-1.187-1.12-5.485-2.034-1.466-.401-.748-5.843-.884-7.09l.112-2.968a64.626 64.626 0 01.718-10.306c.176-1.35 6.008-.641 7.273-4.333.635-1.858.142-5.378.567-6.634.034-.093.566-12.4.21-13.505-.542-.225-4.084.059-4.465.489.04.44.943 1.604.977 3.965l.005 6.694z" fill="#F2F8FC"/><path d="M17.873 21.768c-.137 1.423-.733 7.334-3.317 6.542-1.758-.558-1.92-.293-1.538-2.269.22-1.134 1.763-1.408 2.833-4.6 1.201-3.58-3.332-3.937-4.201-1.311-1.304 3.911.572 4.571-1.954 7.148-.454.46-2.809 1.037-3.81-.489a4.554 4.554 0 01-.772-1.594c-.19-.89.186-12.893.044-13.358-1.646.49-5.217-.24-5.1.49.386 2.346.49 1.26.69 4.317.141 2.16.42 3.139.488 5.627A36.865 36.865 0 002.393 29.2c.367 1.5.592 3.53 2.384 4.86.547.406 3.014.948 3.107 1.379.542 2.493 1.104 7.994.845 11.167-.073.895.103 2.66.083 3.74-.02 1.081-.083 3.912-.689 4.963-1.177 2.078-4.552.978-5.74 2.978-1.567 2.626-.947 7.608-.918 10.654 0 .773-.131 7.49.093 7.642.225.152 4.133-.068 4.167-.415.141-1.467-.581-1.898-.713-4.587a57.438 57.438 0 01-.059-7.671 5.67 5.67 0 01.137-1.218c.44-1.574.122-1.858 1.7-2.89 2.29-.943 3.522-.894 5.563-.361 4.187 1.095 3.542 3.422 4.206 8.542.332 2.576.332 5.119.488 7.71.03.597 1.989.152 3.561.303.43.04 1.569.157 1.598-.41.137-2.684-.137-3.13-.176-5.315 0-.733-.826-8.689-.943-9.143-.488-1.853-.625-2.445-2.242-3.638-2.51-1.878-1.187-1.12-5.485-2.034-1.466-.4-.748-5.843-.884-7.09l.112-2.968a64.626 64.626 0 01.718-10.306c.176-1.35 6.008-.641 7.273-4.333.635-1.858.142-5.378.567-6.634.034-.093.566-12.4.21-13.505-.542-.225-4.084.059-4.465.489.04.44.943 1.604.977 3.965l.005 6.694z" stroke="#F2F8FC" stroke-width=".22" stroke-miterlimit="22.93"/><path fill-rule="evenodd" clip-rule="evenodd" d="M31.526 67.621l-.21.21c-.269-.112-.034-5.456-.274-5.838-1.9-.293-1.607-.063-1.568 2.176 0 1.198 0 12.752.376 12.82l1.578-.039c.22-.45-.679-7.994-.073-7.823 0 0 4.538 5.54 5.182 6.816.362.714 2.042-.528 1.954-.685l-2.833-2.787-2.442-2.361c-2.071-1.844-.88-1.467 1.519-4.337.977-1.169 3.42-2.171 1.539-3.037-.25-.112-.181-.308-.46-.488-.048.034-4.127 5.163-4.288 5.373z" fill="#F2F8FC"/><path d="M31.526 67.621l-.21.21c-.269-.112-.034-5.456-.274-5.838-1.9-.293-1.607-.063-1.568 2.176 0 1.198 0 12.752.376 12.82l1.578-.039c.22-.45-.679-7.994-.073-7.823 0 0 4.538 5.54 5.182 6.816.362.714 2.042-.528 1.954-.685l-2.833-2.787-2.442-2.361c-2.071-1.844-.88-1.467 1.519-4.337.977-1.169 3.42-2.171 1.539-3.037-.25-.112-.181-.308-.46-.488-.048.034-4.127 5.163-4.288 5.373z" stroke="#F2F8FC" stroke-width=".48" stroke-linecap="round" stroke-linejoin="round"/><path fill-rule="evenodd" clip-rule="evenodd" d="M46.404 63.827l2.604 2.709.234.743-2.598 3.06-.24-6.512zm.46 7.999c.117-.768 2.286-3.124 3.292-3.53.699-.284.366-.87-.259-1.844a13.87 13.87 0 00-1.91-2.498c-.904-.866-.215-.49-1.563-1.056-1.348-.567-.889-.841-.977 3.148-.044 1.83.147 2.274 0 4.89v5.701c.347.176.435-.064 1.558.132.308.054.44-.108.098-.235 0-.298.078-.195.098-.42l-.337-4.288z" fill="#F2F8FC"/><path d="M46.404 63.827l2.604 2.709.234.743-2.598 3.06-.24-6.512zm.46 7.999c.117-.768 2.286-3.124 3.292-3.53.699-.284.366-.87-.259-1.844a13.87 13.87 0 00-1.91-2.498c-.904-.866-.215-.49-1.563-1.056-1.348-.567-.889-.841-.977 3.148-.044 1.83.147 2.274 0 4.89v5.701c.347.176.435-.064 1.558.132.308.054.44-.108.098-.235 0-.298.078-.195.098-.42l-.337-4.288z" stroke="#F2F8FC" stroke-width=".22" stroke-miterlimit="22.93"/><path fill-rule="evenodd" clip-rule="evenodd" d="M33.797 64.687l.533-.63-.044.542-.489.088z" fill="#F2F8FC"/><path d="M33.797 64.687l.533-.63-.044.542-.489.088z" stroke="#F2F8FC" stroke-width=".22" stroke-miterlimit="22.93"/><path fill-rule="evenodd" clip-rule="evenodd" d="M41.368 62.355l.572.303-.088-.386-.484.083z" fill="#F2F8FC"/><path d="M41.368 62.355l.572.303-.088-.386-.484.083z" stroke="#F2F8FC" stroke-width=".22" stroke-miterlimit="22.93"/><path fill-rule="evenodd" clip-rule="evenodd" d="M43.86 13.456a9.692 9.692 0 01-.513 2.704c-.543 1.564-.245 1.745-1.842 1.667-.654-.034-.317-.64-.567-2.049-.156-.865-1.602-2.606-1.587-3.633 0-.215 1.045-3.06-1.363-3.887-2.848-.978-3.688 5.486-1.245 5.066l.327-.034a12.96 12.96 0 01.85 3.515c-.044 1.584-1.754 1.07-2.11.753-.714-.64-2.653-1.56-3.132-3.188-.41-1.408-1.123-9.94-.898-11.867a8.61 8.61 0 00-.07-1.906c-.19-.069-2.76-.294-3.14-.108-.977.489.703 13.255.8 14.062.167 1.257.567 3.599 1.53 4.464a11.666 11.666 0 005.373 2.582c.38.063.361.489.576 1.178 1.055 3.256 1.026 6.782.82 10.268-.078 1.34.46 7.075-.268 7.823-1.646 1.672-6.492-.137-6.975 6l.137 9.886c0 2.312-.489 2.709.18 2.806.762.108 1.866 0 2.765 0 1.182.059 1.099 0 .918-1.506-.2-1.696-.205-3.153-.259-4.855-.068-2.215-.083-5.378.635-6.953 1.26-2.772 4.397-4.224 6.009-2.933 2.999 2.376 3.34 6.18 3.702 9.754.254 2.533.489 6.01.874 6.092.386.084 2.38-.185 3.283-.264.645-.053.615.255.708-1.589.04-.743-.977-7.867-.977-7.901-.293-.777-.127-3.159-.977-4.953-.85-1.794-3.355-3.296-5.26-3.36-.455 0-.635 0-.645-.42 0-.665-.205-2.645-.274-4.063l-.068-1.525v-8.195c0-1.917.049-4.19.303-4.366.254-.176 1.641.699 4.396-.978a3.49 3.49 0 001.715-2.709c.058-1.232.903-5.134.937-7.642 0-1.237.23-2.738.245-3.912 0-.542-.44-6.698-.587-6.987-.195-.39-4.596-.332-4.68 0-.107.436.04 3.8.172 6.41.068 2.098.283 4.768.18 6.753z" fill="#F2F8FC"/><path d="M43.86 13.456a9.692 9.692 0 01-.513 2.704c-.543 1.564-.245 1.745-1.842 1.667-.654-.034-.317-.64-.567-2.049-.156-.865-1.602-2.606-1.587-3.633 0-.215 1.045-3.06-1.363-3.887-2.848-.978-3.688 5.486-1.245 5.066l.327-.034a12.96 12.96 0 01.85 3.515c-.044 1.584-1.754 1.07-2.11.753-.714-.64-2.653-1.56-3.132-3.188-.41-1.408-1.123-9.94-.898-11.867a8.61 8.61 0 00-.07-1.906c-.19-.069-2.76-.294-3.14-.108-.977.489.703 13.255.8 14.062.167 1.257.567 3.599 1.53 4.464a11.666 11.666 0 005.373 2.582c.38.063.361.489.576 1.178 1.055 3.256 1.026 6.782.82 10.268-.078 1.34.46 7.075-.268 7.823-1.646 1.672-6.492-.137-6.975 6l.137 9.886c0 2.312-.489 2.709.18 2.806.762.108 1.866 0 2.765 0 1.182.059 1.099 0 .918-1.506-.2-1.696-.205-3.153-.259-4.855-.068-2.215-.083-5.378.635-6.953 1.26-2.772 4.397-4.224 6.009-2.933 2.999 2.376 3.34 6.18 3.702 9.754.254 2.533.489 6.01.874 6.092.386.084 2.38-.185 3.283-.264.645-.053.615.255.708-1.589.04-.743-.977-7.867-.977-7.901-.293-.777-.127-3.159-.977-4.953-.85-1.794-3.355-3.296-5.26-3.36-.455 0-.635 0-.645-.42 0-.665-.205-2.645-.274-4.063l-.068-1.525v-8.195c0-1.917.049-4.19.303-4.366.254-.176 1.641.699 4.396-.978a3.49 3.49 0 001.715-2.709c.058-1.232.903-5.134.937-7.642 0-1.237.23-2.738.245-3.912 0-.542-.44-6.698-.587-6.987-.195-.39-4.596-.332-4.68 0-.107.436.04 3.8.172 6.41.068 2.098.283 4.768.18 6.753z" stroke="#F2F8FC" stroke-width=".22" stroke-miterlimit="22.93"/><path fill-rule="evenodd" clip-rule="evenodd" d="M61.635 11.93c.137-.86-1.109-.66-3.908-.655-.45 0 .093 1.164.069 3.457-.04 4.4.444 8.61.776 12.712.05.944.391 4.543 1.04 5.09 2.243 1.892 4.846 1.6 5.305 1.956.245.186.562 8.953.68 10.268.087.978.268 3.74.351 6.019.025.66-.054 3.72 0 4.112.244 1.58-8.143-1.804-8.304 6.283-.073 4.097.122 11.69.796 15.098l.044.157c.489.132 2.594.4 3.102.078 0-.044-.762-3.911-.82-4.655-.142-1.828-.391-10.624 1.21-11.734a4.5 4.5 0 011.906-.626c1.744-.426 1.333-.26 3.38-.279 2.15 0 3.908.621 4.245 3.017.313 2.308 1.143 9.388 1.011 12.223-.03.573-.342 3.184.396 3.252.566.054 3.326.313 3.375-.137.405-3.72.586-10.957-.259-14.854-.23-1.066-.186-2.205-.586-3.237-1.563-4.01-3.019-2.445-6.375-3.882-.127-.054-.141-.132-.141-.26.185-7.157.18-8.267.063-15.372l.093-1.955.298-3.32c.81-.279 5.862-.362 6.839-2.328 1.348-2.664 2.154-6.082 2.51-9.417.41-3.862.171-8.018.103-11.89 0 0 0 .22-.04.586-.175-.782.123-.807-2.788-.621-.89.059-.313 1.29-.372 3.98-.058 2.69-.146 5.33-.37 8.009-.157 1.921-.089 5.809-2.741 6.024-.645 0-2.613.068-3.029.489l-.22.122c-.087-.626.343-4.846.675-5.027.488-.283 1.27-.523 1.548-1.105.371-.748-.03-1.52-.352-2.23-.776-1.715-5.568-1.246-5.006 1.062l.141.313c1.241 1.696 1.055 1.31 1.046 3.603 0 .401-.298 3.085-.62 3.105-.597.03-2.106-.064-2.624-.391-1.587-1.012-1.954-2.636-2.481-4.4a14.445 14.445 0 01-.542-4.235c.092-3.56 0-5.227.6-8.405M25.718 2.225c-.078.87-.425 1.173-.84 1.134a1.294 1.294 0 01-.792-.489 2.69 2.69 0 01-.527-.978C23.344 1.16 23.5.352 24.5.064a.718.718 0 01.264-.03.742.742 0 01.533.333c.125.186.218.393.273.61.117.41.166.833.147 1.258m.303 5.569c0 .787-.025 1.403-1.095 1.554a.761.761 0 01-.561-.16 1.843 1.843 0 01-.489-.553 4.19 4.19 0 01-.273-1.956c.012-.54.212-1.06.566-1.467a1.17 1.17 0 01.489-.313.62.62 0 01.669.215c.184.216.32.47.396.743.19.635.291 1.293.298 1.956v-.02zm-.035 1.413v.097c.024.348-.034.697-.17 1.017a1.017 1.017 0 01-.845.631h-.044c-.489.03-.9-.45-1.129-1.11a4.546 4.546 0 01-.23-1.09 4.827 4.827 0 010-1.13c.103-.757.416-1.359.977-1.466.904-.142 1.236.489 1.354 1.232.055.418.074.84.058 1.261v.538l.03.02zm0 5.133c.069.421.406 2.343 0 3.35-.239.582-.698.88-1.514.543-.816-.338-.977-1.643-.806-2.836.067-.558.232-1.1.489-1.6.264-.488.605-.723.977-.606.293.093.58.43.84 1.115v.034h.014zm-.806 26.32c.948-.396 1.422-.161 1.651.387.186.704.227 1.44.123 2.16a5.958 5.958 0 00.039 1.736.798.798 0 01-.406.841 1.416 1.416 0 01-.796.24 1.159 1.159 0 01-.85-.41c-.488-.534-.723-1.663-.313-3.81a3.04 3.04 0 01.162-.577c.08-.19.19-.368.327-.523v-.029l.063-.015zm1.871 11.246a8.37 8.37 0 01-.351 2.865c-.342.831-.953 1.184-2.037.382-.244-.181-.489-2.293-.21-3.912.055-.389.156-.77.303-1.134.109-.3.31-.557.576-.734a1.079 1.079 0 011.245.21c.523.387.489 1.277.489 1.956-.015.152-.015.28-.015.387v-.02zm0 8.39a11.22 11.22 0 01-.22 1.839 1.423 1.423 0 01-.488.934 2.509 2.509 0 01-.782.195 1.71 1.71 0 01-.571 0 .6.6 0 01-.454-.298.49.49 0 01-.044-.166 14.14 14.14 0 01.073-3.76c.06-.327.179-.64.352-.924a.937.937 0 01.693-.49 1.06 1.06 0 01.318 0c1.23.27 1.177 1.467 1.128 2.445l-.005.225zm-.43 5.017c.133.748.216 1.505.25 2.264.039.57.014 1.142-.074 1.706-.102.538-.312.93-.684 1.007a.65.65 0 01-.102 0c-1.24.054-1.646-.322-1.705-1.599-.002-.886.04-1.772.127-2.654v-.274a.979.979 0 01.528-.753c.128-.075.266-.13.41-.166a1.52 1.52 0 01.445-.035.942.942 0 01.766.44v.025l.04.039zm-.537 6.244c.396.112.68.85.767 1.706a6.28 6.28 0 010 1.286c-.04.395-.151.779-.327 1.134a1.08 1.08 0 01-1.03.64 1.29 1.29 0 01-1.07-.747 3.113 3.113 0 01-.299-1.286c-.021-.463.02-.927.122-1.379.167-.714.489-1.286.86-1.379.16-.04.324-.057.489-.049.164.008.328.03.488.069v.005zm1.075-43.15a3.758 3.758 0 01-.293 1.765c-.274.49-.743.754-1.514.49-.65-.216-1.007-.92-1.129-1.756a5.266 5.266 0 010-1.516c.064-.468.21-.921.43-1.34a1.177 1.177 0 011.045-.723c1.466.073 1.466 2.122 1.466 3.06l-.005.02zm-.073 8.875c-.096.496-.344.95-.709 1.3-.366.274-.845.24-1.465-.361-.62-.602-.728-2.338-.4-3.687.08-.362.211-.711.39-1.037a1.46 1.46 0 01.655-.645 1.147 1.147 0 011.245.283c.313.406.47.911.44 1.423.026.904-.023 1.809-.147 2.704l-.01.02zM55.26 2.572c0 .389-.105.77-.302 1.105a1.022 1.022 0 01-.782.538.889.889 0 01-.791-.49 3.034 3.034 0 01-.391-1.222.604.604 0 010-.107 3.66 3.66 0 01.073-1.164c.108-.455.337-.84.777-.904h.102a1.21 1.21 0 01.904.733c.221.395.36.83.41 1.281.005.073.005.147 0 .22m-.8 7.315a.542.542 0 01-.567-.108 1.74 1.74 0 01-.455-.626 3.571 3.571 0 01-.288-.904 2.285 2.285 0 01.626-2.186.488.488 0 01.625-.098c.201.144.349.35.42.587.104.29.173.593.205.9.122 1.007-.044 2.205-.567 2.435zm.761-1.16a.62.62 0 01-.166 0 .84.84 0 01-.625-.366 2.705 2.705 0 01-.425-.831 4.04 4.04 0 01-.18-1.144c.01-.49.116-.974.312-1.423a1.11 1.11 0 01.752-.704c.274-.054.489.142.674.489.133.285.228.585.284.895.07.357.108.72.112 1.085-.762 8.254-.997 9.129-1.539 9.305l.801-7.305zm-.16 5.668c-.577 0-.895-.352-1.041-.895a3.305 3.305 0 01-.088-.875c.01-.31.048-.62.112-.924.171-.846.547-1.56.923-1.555.489 0 .904.63 1.09 1.403.075.298.116.603.122.91.012.297-.014.594-.078.885-.943 7.9-1.27 8.336-1.842 8.356l.801-7.305zm.136 11.837c.004.484-.086.963-.264 1.413a.978.978 0 01-.752.626h-.176a.975.975 0 01-.835-.518 2.27 2.27 0 01-.269-.949 5.761 5.761 0 010-.636c.015-.542.13-1.077.337-1.579.186-.4.455-.67.806-.665.528 0 .82.406.977.89.121.428.179.871.171 1.315v.093l.005.01zm-1.03 8.801a1.05 1.05 0 01-.68-.274.978.978 0 01-.307-.64 13.941 13.941 0 01.102-2.518c.031-.23.106-.453.22-.655a.376.376 0 01.562-.142c.24.182.43.423.552.699.296.686.452 1.424.459 2.17.002.251-.034.5-.108.74a.939.939 0 01-.405.527.844.844 0 01-.4.093h.004zm-.26 7.11h-.029c-.371 0-.615-.343-.772-.793a5.785 5.785 0 01-.239-1.208v-.244c-.03-.433.043-.866.21-1.266a1.115 1.115 0 01.762-.67.556.556 0 01.552.283c.17.285.282.6.327.93 0 .068 0 .136.034.195.035.059.03.205.04.342.053.472.043.949-.03 1.418-.102.519-.332.939-.806 1.007h-.049v.005zm1.139 4.806a4.985 4.985 0 01-.352 1.589c-.176.41-.425.704-.743.753-.547.083-.86-.382-1.04-.94a5.786 5.786 0 01-.23-1.314 4.618 4.618 0 010-.519c-.01-.41.055-.82.19-1.207a.876.876 0 01.738-.636h.122a1.264 1.264 0 011.041.807c.184.412.28.859.278 1.31 0 .078-.005.127-.005.157zm.068 6.356c.039 1.237-.112 1.956-.332 2.264a.489.489 0 01-.489.24.747.747 0 01-.45-.309 4.218 4.218 0 01-.663-2.415 4.96 4.96 0 01.19-1.57c.137-.39.352-.67.679-.728.645-.117.913.318 1.02.895.059.414.073.834.045 1.251 0 .157-.005.289 0 .372zm.352 7.236c.053.492.016.989-.108 1.467a.978.978 0 01-.65.733.732.732 0 01-.63-.18 1.242 1.242 0 01-.376-.626v-.044a7.469 7.469 0 01-.107-2.655c.045-.339.142-.669.288-.978.146-.284.332-.445.537-.455a.39.39 0 01.166 0c.269.098.46.455.591.89.16.608.256 1.23.289 1.858v-.01zm0 6.645c.06.522.05 1.05-.035 1.57a1.27 1.27 0 01-.18.46.518.518 0 01-.391.244.535.535 0 01-.176 0 1.26 1.26 0 01-.845-.734 4.376 4.376 0 01-.39-1.55 7.504 7.504 0 01.092-2.097c.03-.168.08-.332.147-.49a.411.411 0 01.312-.268.146.146 0 01.078 0c1.153.244 1.295 1.809 1.378 2.757l.01.108zm-.611 9.114a.702.702 0 01-.283-.044 1.622 1.622 0 01-.787-.841 4.138 4.138 0 01-.395-1.54c-.052-.664.04-1.33.268-1.956a1.77 1.77 0 01.406-.66.851.851 0 01.596-.274c.273 0 .488.284.654.685a7.71 7.71 0 01.41 1.652c.025.142.05.333.064.548.044.49.021.983-.068 1.467-.108.489-.342.91-.797.978h-.068v-.015z" fill="#F2F8FC"/></g><defs><clipPath id="clip0_119_54"><path fill="#fff" d="M0 0h79v111H0z"/></clipPath></defs></svg>