<svg width="158" height="44" viewBox="0 0 158 44" fill="none" xmlns="http://www.w3.org/2000/svg">
<path d="M2 13.6794C2 13.6794 11.9949 1.99999 28.5033 2C45.0117 2.00001 42.7686 17.7223 59.2741 17.7223C76.6809 17.7223 76.7932 2 95.7723 2C115.771 2 118.233 17.7223 137.998 17.7223C150.172 17.7223 155.742 8.17663 155.742 8.17663" stroke="#E0E0E0" stroke-width="4"/>
<path d="M2 25.808C2 25.808 11.9949 14.1286 28.5033 14.1286C45.0117 14.1286 42.7686 29.8509 59.2741 29.8509C76.6809 29.8509 76.7932 14.1286 95.7723 14.1286C115.771 14.1286 118.233 29.8509 137.998 29.8509C150.172 29.8509 155.742 20.3052 155.742 20.3052" stroke="#E0E0E0" stroke-width="4"/>
<path d="M2 37.9368C2 37.9368 11.9949 26.2573 28.5033 26.2573C45.0117 26.2573 42.7686 41.9796 59.2741 41.9796C76.6809 41.9796 76.7932 26.2573 95.7723 26.2573C115.771 26.2573 118.233 41.9796 137.998 41.9796C150.172 41.9796 155.742 32.434 155.742 32.434" stroke="#E0E0E0" stroke-width="4"/>
</svg>
